<?xml version="1.0" encoding="UTF-8" standalone="no"?>
<svg width="128px" height="64px" viewBox="0 0 128 64" version="1.1" xmlns="http://www.w3.org/2000/svg" xmlns:xlink="http://www.w3.org/1999/xlink" xmlns:sketch="http://www.bohemiancoding.com/sketch/ns">
    <!-- Generator: Sketch 3.5.2 (25235) - http://www.bohemiancoding.com/sketch -->
    <title>Artboard 3</title>
    <desc>Created with Sketch.</desc>
    <defs></defs>
    <g id="Page-1" stroke="none" stroke-width="1" fill="none" fill-rule="evenodd" sketch:type="MSPage">
        <g id="Artboard-3" sketch:type="MSArtboardGroup">
            <rect id="Rectangle-379-Copy-4" fill="#3C3B3B" sketch:type="MSShapeGroup" x="32" y="20" width="4" height="4"></rect>
            <g id="Cobble-4" sketch:type="MSLayerGroup" transform="translate(24.000000, 20.000000)">
                <rect id="Rectangle-379" fill="#594E47" sketch:type="MSShapeGroup" x="0" y="0" width="4" height="4"></rect>
                <rect id="Rectangle-379-Copy-6" fill="#777473" sketch:type="MSShapeGroup" x="0" y="4" width="4" height="8"></rect>
                <rect id="Rectangle-379-Copy-8" fill="#6B6059" sketch:type="MSShapeGroup" x="12" y="4" width="4" height="4"></rect>
                <rect id="Rectangle-379-Copy-13" fill="#6B6059" sketch:type="MSShapeGroup" x="8" y="8" width="4" height="4"></rect>
                <rect id="Rectangle-379-Copy-19" fill="#777473" sketch:type="MSShapeGroup" x="12" y="12" width="4" height="4"></rect>
                <rect id="Rectangle-379-Copy-23" fill="#777473" sketch:type="MSShapeGroup" x="8" y="16" width="16" height="4"></rect>
                <rect id="Rectangle-379-Copy-10" fill="#6B6059" sketch:type="MSShapeGroup" x="20" y="4" width="4" height="4"></rect>
                <rect id="Rectangle-379-Copy-7" fill="#594E47" sketch:type="MSShapeGroup" x="4" y="4" width="8" height="4"></rect>
                <rect id="Rectangle-379-Copy-9" fill="#594E47" sketch:type="MSShapeGroup" x="16" y="4" width="4" height="4"></rect>
                <rect id="Rectangle-379-Copy-12" fill="#594E47" sketch:type="MSShapeGroup" x="4" y="8" width="4" height="4"></rect>
                <rect id="Rectangle-379-Copy-14" fill="#594E47" sketch:type="MSShapeGroup" x="12" y="8" width="4" height="4"></rect>
                <rect id="Rectangle-379-Copy-21" fill="#594E47" sketch:type="MSShapeGroup" x="8" y="12" width="4" height="4"></rect>
                <rect id="Rectangle-379-Copy-25" fill="#594E47" sketch:type="MSShapeGroup" x="0" y="16" width="4" height="4"></rect>
                <rect id="Rectangle-379-Copy-26" fill="#8E8C88" sketch:type="MSShapeGroup" x="0" y="12" width="4" height="4"></rect>
                <rect id="Rectangle-379-Copy-22" fill="#594E47" sketch:type="MSShapeGroup" x="24" y="12" width="4" height="8"></rect>
                <rect id="Rectangle-379-Copy-16" fill="#6B6059" sketch:type="MSShapeGroup" x="16" y="8" width="4" height="4"></rect>
                <rect id="Rectangle-379-Copy-24" fill="#6B6059" sketch:type="MSShapeGroup" x="28" y="12" width="4" height="8"></rect>
                <rect id="Rectangle-379-Copy-20" fill="#6B6059" sketch:type="MSShapeGroup" x="16" y="12" width="8" height="4"></rect>
                <rect id="Rectangle-379-Copy-17" fill="#777473" sketch:type="MSShapeGroup" x="28" y="8" width="4" height="4"></rect>
                <rect id="Rectangle-379-Copy-15" fill="#594E47" sketch:type="MSShapeGroup" x="20" y="8" width="8" height="4"></rect>
                <rect id="Rectangle-379-Copy-11" fill="#594E47" sketch:type="MSShapeGroup" x="24" y="4" width="8" height="4"></rect>
                <rect id="Rectangle-379-Copy-3" fill="#594E47" sketch:type="MSShapeGroup" x="28" y="0" width="4" height="4"></rect>
                <rect id="Rectangle-379-Copy" fill="#4D413A" sketch:type="MSShapeGroup" x="4" y="0" width="4" height="4"></rect>
                <rect id="Rectangle-379-Copy-18" fill="#4D413A" sketch:type="MSShapeGroup" x="4" y="12" width="4" height="8"></rect>
                <rect id="Rectangle-379-Copy-5" fill="#3C3B3B" sketch:type="MSShapeGroup" x="16" y="0" width="12" height="4"></rect>
                <rect id="Rectangle-379-Copy-2" fill="#4D413A" sketch:type="MSShapeGroup" x="12" y="0" width="4" height="4"></rect>
            </g>
            <g id="Group-3" sketch:type="MSLayerGroup" transform="translate(24.000000, 40.000000)">
                <rect id="Rectangle-379-Copy-41" fill="#6B6059" sketch:type="MSShapeGroup" x="0" y="8" width="4" height="12"></rect>
                <rect id="Rectangle-379-Copy-42" fill="#6B6059" sketch:type="MSShapeGroup" x="4" y="8" width="4" height="8"></rect>
                <rect id="Rectangle-379-Copy-43" fill="#6B6059" sketch:type="MSShapeGroup" x="8" y="4" width="4" height="4"></rect>
                <rect id="Rectangle-379-Copy-64" fill="#6B6059" sketch:type="MSShapeGroup" x="8" y="16" width="4" height="4"></rect>
                <rect id="Rectangle-379-Copy-44" fill="#777473" sketch:type="MSShapeGroup" x="4" y="4" width="4" height="4"></rect>
                <rect id="Rectangle-379-Copy-45" fill="#777473" sketch:type="MSShapeGroup" x="4" y="16" width="4" height="4"></rect>
                <rect id="Rectangle-379-Copy-46" fill="#777473" sketch:type="MSShapeGroup" x="8" y="8" width="4" height="8"></rect>
                <rect id="Rectangle-379-Copy-47" fill="#777473" sketch:type="MSShapeGroup" x="16" y="4" width="4" height="8"></rect>
                <rect id="Rectangle-379-Copy-50" fill="#777473" sketch:type="MSShapeGroup" x="20" y="12" width="4" height="4"></rect>
                <rect id="Rectangle-379-Copy-48" fill="#777473" sketch:type="MSShapeGroup" x="20" y="0" width="4" height="8"></rect>
                <rect id="Rectangle-379-Copy-49" fill="#777473" sketch:type="MSShapeGroup" x="24" y="4" width="8" height="8"></rect>
                <rect id="Rectangle-379-Copy-55" fill="#594E47" sketch:type="MSShapeGroup" x="8" y="0" width="12" height="4"></rect>
                <rect id="Rectangle-379-Copy-56" fill="#594E47" sketch:type="MSShapeGroup" x="12" y="16" width="20" height="4"></rect>
                <rect id="Rectangle-379-Copy-57" fill="#594E47" sketch:type="MSShapeGroup" x="12" y="16" width="20" height="4"></rect>
                <rect id="Rectangle-379-Copy-58" fill="#594E47" sketch:type="MSShapeGroup" x="20" y="20" width="12" height="4"></rect>
                <rect id="Rectangle-379-Copy-60" fill="#594E47" sketch:type="MSShapeGroup" x="12" y="4" width="4" height="12"></rect>
                <rect id="Rectangle-379-Copy-62" fill="#4D413A" sketch:type="MSShapeGroup" x="4" y="0" width="4" height="4"></rect>
                <rect id="Rectangle-379-Copy-51" fill="#8E8C88" sketch:type="MSShapeGroup" x="16" y="12" width="4" height="4"></rect>
                <rect id="Rectangle-379-Copy-53" fill="#8E8C88" sketch:type="MSShapeGroup" x="20" y="8" width="4" height="4"></rect>
                <rect id="Rectangle-379-Copy-63" fill="#8E8C88" sketch:type="MSShapeGroup" x="0" y="4" width="4" height="4"></rect>
                <rect id="Rectangle-379-Copy-52" fill="#8E8C88" sketch:type="MSShapeGroup" x="24" y="12" width="8" height="4"></rect>
                <rect id="Rectangle-379-Copy-54" fill="#8E8C88" sketch:type="MSShapeGroup" x="24" y="0" width="8" height="4"></rect>
                <rect id="Rectangle-379-Copy-59" fill="#4D413A" sketch:type="MSShapeGroup" x="0" y="20" width="20" height="4"></rect>
                <rect id="Rectangle-379-Copy-61" fill="#3C3B3B" sketch:type="MSShapeGroup" x="0" y="0" width="4" height="4"></rect>
            </g>
            <g id="Group-3-Copy" sketch:type="MSLayerGroup" transform="translate(88.000000, 40.000000)">
                <rect id="Rectangle-379-Copy-41" fill="#6B6059" sketch:type="MSShapeGroup" x="0" y="8" width="4" height="12"></rect>
                <rect id="Rectangle-379-Copy-42" fill="#6B6059" sketch:type="MSShapeGroup" x="4" y="8" width="4" height="8"></rect>
                <rect id="Rectangle-379-Copy-43" fill="#6B6059" sketch:type="MSShapeGroup" x="8" y="4" width="4" height="4"></rect>
                <rect id="Rectangle-379-Copy-64" fill="#6B6059" sketch:type="MSShapeGroup" x="8" y="16" width="4" height="4"></rect>
                <rect id="Rectangle-379-Copy-44" fill="#777473" sketch:type="MSShapeGroup" x="4" y="4" width="4" height="4"></rect>
                <rect id="Rectangle-379-Copy-45" fill="#777473" sketch:type="MSShapeGroup" x="4" y="16" width="4" height="4"></rect>
                <rect id="Rectangle-379-Copy-46" fill="#777473" sketch:type="MSShapeGroup" x="8" y="8" width="4" height="8"></rect>
                <rect id="Rectangle-379-Copy-47" fill="#777473" sketch:type="MSShapeGroup" x="16" y="4" width="4" height="8"></rect>
                <rect id="Rectangle-379-Copy-50" fill="#777473" sketch:type="MSShapeGroup" x="20" y="12" width="4" height="4"></rect>
                <rect id="Rectangle-379-Copy-48" fill="#777473" sketch:type="MSShapeGroup" x="20" y="0" width="4" height="8"></rect>
                <rect id="Rectangle-379-Copy-49" fill="#777473" sketch:type="MSShapeGroup" x="24" y="4" width="8" height="8"></rect>
                <rect id="Rectangle-379-Copy-55" fill="#594E47" sketch:type="MSShapeGroup" x="8" y="0" width="12" height="4"></rect>
                <rect id="Rectangle-379-Copy-56" fill="#594E47" sketch:type="MSShapeGroup" x="12" y="16" width="20" height="4"></rect>
                <rect id="Rectangle-379-Copy-57" fill="#594E47" sketch:type="MSShapeGroup" x="12" y="16" width="20" height="4"></rect>
                <rect id="Rectangle-379-Copy-58" fill="#594E47" sketch:type="MSShapeGroup" x="20" y="20" width="12" height="4"></rect>
                <rect id="Rectangle-379-Copy-60" fill="#594E47" sketch:type="MSShapeGroup" x="12" y="4" width="4" height="12"></rect>
                <rect id="Rectangle-379-Copy-62" fill="#4D413A" sketch:type="MSShapeGroup" x="4" y="0" width="4" height="4"></rect>
                <rect id="Rectangle-379-Copy-51" fill="#8E8C88" sketch:type="MSShapeGroup" x="16" y="12" width="4" height="4"></rect>
                <rect id="Rectangle-379-Copy-53" fill="#8E8C88" sketch:type="MSShapeGroup" x="20" y="8" width="4" height="4"></rect>
                <rect id="Rectangle-379-Copy-63" fill="#8E8C88" sketch:type="MSShapeGroup" x="0" y="4" width="4" height="4"></rect>
                <rect id="Rectangle-379-Copy-52" fill="#8E8C88" sketch:type="MSShapeGroup" x="24" y="12" width="8" height="4"></rect>
                <rect id="Rectangle-379-Copy-54" fill="#8E8C88" sketch:type="MSShapeGroup" x="24" y="0" width="8" height="4"></rect>
                <rect id="Rectangle-379-Copy-59" fill="#4D413A" sketch:type="MSShapeGroup" x="0" y="20" width="20" height="4"></rect>
                <rect id="Rectangle-379-Copy-61" fill="#3C3B3B" sketch:type="MSShapeGroup" x="0" y="0" width="4" height="4"></rect>
            </g>
            <g id="Cobble-4-Copy" sketch:type="MSLayerGroup" transform="translate(88.000000, 20.000000)">
                <rect id="Rectangle-379" fill="#594E47" sketch:type="MSShapeGroup" x="0" y="0" width="4" height="4"></rect>
                <rect id="Rectangle-379-Copy-6" fill="#777473" sketch:type="MSShapeGroup" x="0" y="4" width="4" height="8"></rect>
                <rect id="Rectangle-379-Copy-8" fill="#6B6059" sketch:type="MSShapeGroup" x="12" y="4" width="4" height="4"></rect>
                <rect id="Rectangle-379-Copy-13" fill="#6B6059" sketch:type="MSShapeGroup" x="8" y="8" width="4" height="4"></rect>
                <rect id="Rectangle-379-Copy-19" fill="#777473" sketch:type="MSShapeGroup" x="12" y="12" width="4" height="4"></rect>
                <rect id="Rectangle-379-Copy-23" fill="#777473" sketch:type="MSShapeGroup" x="8" y="16" width="16" height="4"></rect>
                <rect id="Rectangle-379-Copy-10" fill="#6B6059" sketch:type="MSShapeGroup" x="20" y="4" width="4" height="4"></rect>
                <rect id="Rectangle-379-Copy-7" fill="#594E47" sketch:type="MSShapeGroup" x="4" y="4" width="8" height="4"></rect>
                <rect id="Rectangle-379-Copy-9" fill="#594E47" sketch:type="MSShapeGroup" x="16" y="4" width="4" height="4"></rect>
                <rect id="Rectangle-379-Copy-12" fill="#594E47" sketch:type="MSShapeGroup" x="4" y="8" width="4" height="4"></rect>
                <rect id="Rectangle-379-Copy-14" fill="#594E47" sketch:type="MSShapeGroup" x="12" y="8" width="4" height="4"></rect>
                <rect id="Rectangle-379-Copy-21" fill="#594E47" sketch:type="MSShapeGroup" x="8" y="12" width="4" height="4"></rect>
                <rect id="Rectangle-379-Copy-25" fill="#594E47" sketch:type="MSShapeGroup" x="0" y="16" width="4" height="4"></rect>
                <rect id="Rectangle-379-Copy-26" fill="#8E8C88" sketch:type="MSShapeGroup" x="0" y="12" width="4" height="4"></rect>
                <rect id="Rectangle-379-Copy-22" fill="#594E47" sketch:type="MSShapeGroup" x="24" y="12" width="4" height="8"></rect>
                <rect id="Rectangle-379-Copy-16" fill="#6B6059" sketch:type="MSShapeGroup" x="16" y="8" width="4" height="4"></rect>
                <rect id="Rectangle-379-Copy-24" fill="#6B6059" sketch:type="MSShapeGroup" x="28" y="12" width="4" height="8"></rect>
                <rect id="Rectangle-379-Copy-20" fill="#6B6059" sketch:type="MSShapeGroup" x="16" y="12" width="8" height="4"></rect>
                <rect id="Rectangle-379-Copy-17" fill="#777473" sketch:type="MSShapeGroup" x="28" y="8" width="4" height="4"></rect>
                <rect id="Rectangle-379-Copy-15" fill="#594E47" sketch:type="MSShapeGroup" x="20" y="8" width="8" height="4"></rect>
                <rect id="Rectangle-379-Copy-11" fill="#594E47" sketch:type="MSShapeGroup" x="24" y="4" width="8" height="4"></rect>
                <rect id="Rectangle-379-Copy-3" fill="#594E47" sketch:type="MSShapeGroup" x="28" y="0" width="4" height="4"></rect>
                <rect id="Rectangle-379-Copy" fill="#4D413A" sketch:type="MSShapeGroup" x="4" y="0" width="4" height="4"></rect>
                <rect id="Rectangle-379-Copy-18" fill="#4D413A" sketch:type="MSShapeGroup" x="4" y="12" width="4" height="8"></rect>
                <rect id="Rectangle-379-Copy-4" fill="#3C3B3B" sketch:type="MSShapeGroup" x="8" y="0" width="4" height="4"></rect>
                <rect id="Rectangle-379-Copy-5" fill="#3C3B3B" sketch:type="MSShapeGroup" x="16" y="0" width="12" height="4"></rect>
                <rect id="Rectangle-379-Copy-2" fill="#4D413A" sketch:type="MSShapeGroup" x="12" y="0" width="4" height="4"></rect>
            </g>
            <g id="Cobble-1" sketch:type="MSLayerGroup" transform="translate(24.000000, 0.000000)">
                <rect id="Rectangle-322" fill="#6B6059" sketch:type="MSShapeGroup" x="4" y="0" width="24" height="16"></rect>
                <rect id="Rectangle-134-Copy" fill="#8E8C88" sketch:type="MSShapeGroup" x="8" y="0" width="4" height="4"></rect>
                <rect id="Rectangle-134-Copy-4" fill="#777473" sketch:type="MSShapeGroup" x="4" y="4" width="4" height="8"></rect>
                <rect id="Rectangle-134-Copy-11" fill="#594E47" sketch:type="MSShapeGroup" x="0" y="0" width="4" height="20"></rect>
                <rect id="Rectangle-134-Copy-8" fill="#3C3B3B" sketch:type="MSShapeGroup" x="28" y="12" width="4" height="8"></rect>
                <rect id="Rectangle-134-Copy-9" fill="#4D413A" sketch:type="MSShapeGroup" x="28" y="4" width="4" height="8"></rect>
                <rect id="Rectangle-134-Copy-6" fill="#777473" sketch:type="MSShapeGroup" x="24" y="8" width="4" height="4"></rect>
                <rect id="Rectangle-134-Copy-7" fill="#777473" sketch:type="MSShapeGroup" x="12" y="0" width="4" height="4"></rect>
                <rect id="Rectangle-134-Copy-10" fill="#594E47" sketch:type="MSShapeGroup" x="28" y="0" width="4" height="4"></rect>
                <rect id="Rectangle-134-Copy-5" fill="#777473" sketch:type="MSShapeGroup" transform="translate(18.000000, 14.000000) rotate(-270.000000) translate(-18.000000, -14.000000) " x="16" y="8" width="4" height="12"></rect>
                <rect id="Rectangle-134-Copy-12" fill="#594E47" sketch:type="MSShapeGroup" transform="translate(16.000000, 18.000000) rotate(-270.000000) translate(-16.000000, -18.000000) " x="14" y="6" width="4" height="24"></rect>
                <rect id="Rectangle-134-Copy-2" fill="#8E8C88" sketch:type="MSShapeGroup" x="16" y="0" width="8" height="4"></rect>
            </g>
            <g id="Cobble-1-copy" sketch:type="MSLayerGroup" transform="translate(88.000000, 0.000000)">
                <rect id="Rectangle-322" fill="#6B6059" sketch:type="MSShapeGroup" x="4" y="0" width="24" height="16"></rect>
                <rect id="Rectangle-134-Copy" fill="#8E8C88" sketch:type="MSShapeGroup" x="8" y="0" width="4" height="4"></rect>
                <rect id="Rectangle-134-Copy-4" fill="#777473" sketch:type="MSShapeGroup" x="4" y="4" width="4" height="8"></rect>
                <rect id="Rectangle-134-Copy-11" fill="#594E47" sketch:type="MSShapeGroup" x="0" y="0" width="4" height="20"></rect>
                <rect id="Rectangle-134-Copy-8" fill="#3C3B3B" sketch:type="MSShapeGroup" x="28" y="12" width="4" height="8"></rect>
                <rect id="Rectangle-134-Copy-9" fill="#4D413A" sketch:type="MSShapeGroup" x="28" y="4" width="4" height="8"></rect>
                <rect id="Rectangle-134-Copy-6" fill="#777473" sketch:type="MSShapeGroup" x="24" y="8" width="4" height="4"></rect>
                <rect id="Rectangle-134-Copy-7" fill="#777473" sketch:type="MSShapeGroup" x="12" y="0" width="4" height="4"></rect>
                <rect id="Rectangle-134-Copy-10" fill="#594E47" sketch:type="MSShapeGroup" x="28" y="0" width="4" height="4"></rect>
                <rect id="Rectangle-134-Copy-5" fill="#777473" sketch:type="MSShapeGroup" transform="translate(18.000000, 14.000000) rotate(-270.000000) translate(-18.000000, -14.000000) " x="16" y="8" width="4" height="12"></rect>
                <rect id="Rectangle-134-Copy-12" fill="#594E47" sketch:type="MSShapeGroup" transform="translate(16.000000, 18.000000) rotate(-270.000000) translate(-16.000000, -18.000000) " x="14" y="6" width="4" height="24"></rect>
                <rect id="Rectangle-134-Copy-2" fill="#8E8C88" sketch:type="MSShapeGroup" x="16" y="0" width="8" height="4"></rect>
            </g>
            <g id="Group-2" sketch:type="MSLayerGroup" transform="translate(56.000000, 0.000000)">
                <rect id="Rectangle-335" fill="#777473" sketch:type="MSShapeGroup" x="0" y="0" width="32" height="20"></rect>
                <rect id="Rectangle-134-Copy-3" fill="#8E8C88" sketch:type="MSShapeGroup" x="4" y="0" width="20" height="4"></rect>
                <rect id="Rectangle-134-Copy-13" fill="#8E8C88" sketch:type="MSShapeGroup" x="4" y="16" width="20" height="4"></rect>
                <rect id="Rectangle-134-Copy-14" fill="#8E8C88" sketch:type="MSShapeGroup" x="24" y="4" width="8" height="4"></rect>
                <rect id="Rectangle-134-Copy-17" fill="#8E8C88" sketch:type="MSShapeGroup" x="28" y="8" width="4" height="4"></rect>
                <rect id="Rectangle-134-Copy-20" fill="#8E8C88" sketch:type="MSShapeGroup" x="0" y="4" width="4" height="12"></rect>
                <rect id="Rectangle-134-Copy-18" fill="#8E8C88" sketch:type="MSShapeGroup" x="24" y="12" width="4" height="4"></rect>
                <rect id="Rectangle-134-Copy-19" fill="#8E8C88" sketch:type="MSShapeGroup" x="28" y="16" width="4" height="4"></rect>
                <rect id="Rectangle-134-Copy-15" fill="#6B6059" sketch:type="MSShapeGroup" x="24" y="0" width="8" height="4"></rect>
                <rect id="Rectangle-134-Copy-16" fill="#6B6059" sketch:type="MSShapeGroup" x="0" y="0" width="4" height="4"></rect>
            </g>
            <g id="Group-2-Copy-2" sketch:type="MSLayerGroup" transform="translate(120.000000, 0.000000)">
                <rect id="Rectangle-335" fill="#777473" sketch:type="MSShapeGroup" x="0" y="0" width="32" height="20"></rect>
                <rect id="Rectangle-134-Copy-3" fill="#8E8C88" sketch:type="MSShapeGroup" x="4" y="0" width="20" height="4"></rect>
                <rect id="Rectangle-134-Copy-13" fill="#8E8C88" sketch:type="MSShapeGroup" x="4" y="16" width="20" height="4"></rect>
                <rect id="Rectangle-134-Copy-16" fill="#6B6059" sketch:type="MSShapeGroup" x="0" y="0" width="4" height="4"></rect>
            </g>
            <g id="Group-2-Copy" sketch:type="MSLayerGroup" transform="translate(-8.000000, 0.000000)">
                <rect id="Rectangle-335" fill="#777473" sketch:type="MSShapeGroup" x="0" y="0" width="32" height="20"></rect>
                <rect id="Rectangle-134-Copy-3" fill="#8E8C88" sketch:type="MSShapeGroup" x="4" y="0" width="20" height="4"></rect>
                <rect id="Rectangle-134-Copy-13" fill="#8E8C88" sketch:type="MSShapeGroup" x="4" y="16" width="20" height="4"></rect>
                <rect id="Rectangle-134-Copy-14" fill="#8E8C88" sketch:type="MSShapeGroup" x="24" y="4" width="8" height="4"></rect>
                <rect id="Rectangle-134-Copy-17" fill="#8E8C88" sketch:type="MSShapeGroup" x="28" y="8" width="4" height="4"></rect>
                <rect id="Rectangle-134-Copy-18" fill="#8E8C88" sketch:type="MSShapeGroup" x="24" y="12" width="4" height="4"></rect>
                <rect id="Rectangle-134-Copy-19" fill="#8E8C88" sketch:type="MSShapeGroup" x="28" y="16" width="4" height="4"></rect>
                <rect id="Rectangle-134-Copy-15" fill="#6B6059" sketch:type="MSShapeGroup" x="24" y="0" width="8" height="4"></rect>
            </g>
            <g id="Cobble-3" sketch:type="MSLayerGroup" transform="translate(56.000000, 20.000000)">
                <rect id="Rectangle-322-Copy" fill="#6B6059" sketch:type="MSShapeGroup" x="0" y="4" width="24" height="16"></rect>
                <rect id="Rectangle-134-Copy-24" fill="#777473" sketch:type="MSShapeGroup" x="24" y="4" width="4" height="12"></rect>
                <rect id="Rectangle-134-Copy-25" fill="#777473" sketch:type="MSShapeGroup" x="28" y="4" width="4" height="8"></rect>
                <rect id="Rectangle-134-Copy-21" fill="#777473" sketch:type="MSShapeGroup" x="0" y="8" width="12" height="4"></rect>
                <rect id="Rectangle-134-Copy-22" fill="#777473" sketch:type="MSShapeGroup" x="0" y="8" width="12" height="4"></rect>
                <rect id="Rectangle-134-Copy-23" fill="#777473" sketch:type="MSShapeGroup" x="0" y="4" width="12" height="4"></rect>
                <rect id="Rectangle-134-Copy-29" fill="#594E47" sketch:type="MSShapeGroup" x="4" y="0" width="28" height="4"></rect>
                <rect id="Rectangle-134-Copy-30" fill="#594E47" sketch:type="MSShapeGroup" x="20" y="16" width="12" height="4"></rect>
                <rect id="Rectangle-134-Copy-31" fill="#594E47" sketch:type="MSShapeGroup" x="20" y="4" width="4" height="12"></rect>
                <rect id="Rectangle-134-Copy-27" fill="#8E8C88" sketch:type="MSShapeGroup" x="28" y="12" width="4" height="4"></rect>
                <rect id="Rectangle-134-Copy-28" fill="#4D413A" sketch:type="MSShapeGroup" x="0" y="0" width="4" height="4"></rect>
                <rect id="Rectangle-134-Copy-26" fill="#8E8C88" sketch:type="MSShapeGroup" x="8" y="4" width="8" height="4"></rect>
            </g>
            <g id="Cobble-3-Copy-2" sketch:type="MSLayerGroup" transform="translate(120.000000, 20.000000)">
                <rect id="Rectangle-322-Copy" fill="#6B6059" sketch:type="MSShapeGroup" x="0" y="4" width="24" height="16"></rect>
                <rect id="Rectangle-134-Copy-21" fill="#777473" sketch:type="MSShapeGroup" x="0" y="8" width="12" height="4"></rect>
                <rect id="Rectangle-134-Copy-22" fill="#777473" sketch:type="MSShapeGroup" x="0" y="8" width="12" height="4"></rect>
                <rect id="Rectangle-134-Copy-23" fill="#777473" sketch:type="MSShapeGroup" x="0" y="4" width="12" height="4"></rect>
                <rect id="Rectangle-134-Copy-29" fill="#594E47" sketch:type="MSShapeGroup" x="4" y="0" width="28" height="4"></rect>
                <rect id="Rectangle-134-Copy-28" fill="#4D413A" sketch:type="MSShapeGroup" x="0" y="0" width="4" height="4"></rect>
            </g>
            <g id="Cobble-3-Copy" sketch:type="MSLayerGroup" transform="translate(-8.000000, 20.000000)">
                <rect id="Rectangle-322-Copy" fill="#6B6059" sketch:type="MSShapeGroup" x="0" y="4" width="24" height="16"></rect>
                <rect id="Rectangle-134-Copy-24" fill="#777473" sketch:type="MSShapeGroup" x="24" y="4" width="4" height="12"></rect>
                <rect id="Rectangle-134-Copy-25" fill="#777473" sketch:type="MSShapeGroup" x="28" y="4" width="4" height="8"></rect>
                <rect id="Rectangle-134-Copy-21" fill="#777473" sketch:type="MSShapeGroup" x="0" y="8" width="12" height="4"></rect>
                <rect id="Rectangle-134-Copy-22" fill="#777473" sketch:type="MSShapeGroup" x="0" y="8" width="12" height="4"></rect>
                <rect id="Rectangle-134-Copy-23" fill="#777473" sketch:type="MSShapeGroup" x="0" y="4" width="12" height="4"></rect>
                <rect id="Rectangle-134-Copy-29" fill="#594E47" sketch:type="MSShapeGroup" x="4" y="0" width="28" height="4"></rect>
                <rect id="Rectangle-134-Copy-30" fill="#594E47" sketch:type="MSShapeGroup" x="20" y="16" width="12" height="4"></rect>
                <rect id="Rectangle-134-Copy-31" fill="#594E47" sketch:type="MSShapeGroup" x="20" y="4" width="4" height="12"></rect>
                <rect id="Rectangle-134-Copy-27" fill="#8E8C88" sketch:type="MSShapeGroup" x="28" y="12" width="4" height="4"></rect>
                <rect id="Rectangle-134-Copy-26" fill="#8E8C88" sketch:type="MSShapeGroup" x="8" y="4" width="8" height="4"></rect>
            </g>
            <g id="Group" sketch:type="MSLayerGroup" transform="translate(56.000000, 40.000000)">
                <rect id="Rectangle-379-Copy-40" fill="#6B6059" sketch:type="MSShapeGroup" x="0" y="8" width="32" height="16"></rect>
                <rect id="Rectangle-379-Copy-6" fill="#777473" sketch:type="MSShapeGroup" x="0" y="4" width="4" height="8"></rect>
                <rect id="Rectangle-379-Copy-27" fill="#777473" sketch:type="MSShapeGroup" x="4" y="0" width="4" height="8"></rect>
                <rect id="Rectangle-379-Copy-29" fill="#777473" sketch:type="MSShapeGroup" x="4" y="12" width="4" height="4"></rect>
                <rect id="Rectangle-379-Copy-30" fill="#777473" sketch:type="MSShapeGroup" x="16" y="16" width="16" height="4"></rect>
                <rect id="Rectangle-379-Copy-28" fill="#777473" sketch:type="MSShapeGroup" x="12" y="8" width="4" height="12"></rect>
                <rect id="Rectangle-379-Copy-36" fill="#6B6059" sketch:type="MSShapeGroup" x="12" y="4" width="4" height="4"></rect>
                <rect id="Rectangle-379-Copy-37" fill="#6B6059" sketch:type="MSShapeGroup" x="16" y="8" width="16" height="8"></rect>
                <rect id="Rectangle-379-Copy-7" fill="#594E47" sketch:type="MSShapeGroup" x="16" y="0" width="8" height="4"></rect>
                <rect id="Rectangle-379-Copy-35" fill="#8E8C88" sketch:type="MSShapeGroup" x="16" y="4" width="16" height="4"></rect>
                <rect id="Rectangle-379-Copy-38" fill="#8E8C88" sketch:type="MSShapeGroup" x="4" y="8" width="4" height="4"></rect>
                <rect id="Rectangle-379-Copy-39" fill="#8E8C88" sketch:type="MSShapeGroup" x="0" y="0" width="4" height="4"></rect>
                <rect id="Rectangle-379-Copy" fill="#4D413A" sketch:type="MSShapeGroup" x="24" y="0" width="4" height="4"></rect>
                <rect id="Rectangle-379-Copy-32" fill="#4D413A" sketch:type="MSShapeGroup" x="8" y="0" width="8" height="4"></rect>
                <rect id="Rectangle-379-Copy-33" fill="#4D413A" sketch:type="MSShapeGroup" x="8" y="4" width="4" height="4"></rect>
                <rect id="Rectangle-379-Copy-31" fill="#3C3B3B" sketch:type="MSShapeGroup" x="28" y="0" width="4" height="4"></rect>
                <rect id="Rectangle-379-Copy-34" fill="#4D413A" sketch:type="MSShapeGroup" x="28" y="20" width="4" height="4"></rect>
            </g>
            <g id="Group-Copy-2" sketch:type="MSLayerGroup" transform="translate(120.000000, 40.000000)">
                <rect id="Rectangle-379-Copy-40" fill="#6B6059" sketch:type="MSShapeGroup" x="0" y="8" width="32" height="16"></rect>
                <rect id="Rectangle-379-Copy-6" fill="#777473" sketch:type="MSShapeGroup" x="0" y="4" width="4" height="8"></rect>
                <rect id="Rectangle-379-Copy-27" fill="#777473" sketch:type="MSShapeGroup" x="4" y="0" width="4" height="8"></rect>
                <rect id="Rectangle-379-Copy-29" fill="#777473" sketch:type="MSShapeGroup" x="4" y="12" width="4" height="4"></rect>
                <rect id="Rectangle-379-Copy-38" fill="#8E8C88" sketch:type="MSShapeGroup" x="4" y="8" width="4" height="4"></rect>
                <rect id="Rectangle-379-Copy-39" fill="#8E8C88" sketch:type="MSShapeGroup" x="0" y="0" width="4" height="4"></rect>
            </g>
            <g id="Group-Copy" sketch:type="MSLayerGroup" transform="translate(-8.000000, 40.000000)">
                <rect id="Rectangle-379-Copy-40" fill="#6B6059" sketch:type="MSShapeGroup" x="0" y="8" width="32" height="16"></rect>
                <rect id="Rectangle-379-Copy-30" fill="#777473" sketch:type="MSShapeGroup" x="16" y="16" width="16" height="4"></rect>
                <rect id="Rectangle-379-Copy-28" fill="#777473" sketch:type="MSShapeGroup" x="12" y="8" width="4" height="12"></rect>
                <rect id="Rectangle-379-Copy-36" fill="#6B6059" sketch:type="MSShapeGroup" x="12" y="4" width="4" height="4"></rect>
                <rect id="Rectangle-379-Copy-37" fill="#6B6059" sketch:type="MSShapeGroup" x="16" y="8" width="16" height="8"></rect>
                <rect id="Rectangle-379-Copy-7" fill="#594E47" sketch:type="MSShapeGroup" x="16" y="0" width="8" height="4"></rect>
                <rect id="Rectangle-379-Copy-35" fill="#8E8C88" sketch:type="MSShapeGroup" x="16" y="4" width="16" height="4"></rect>
                <rect id="Rectangle-379-Copy" fill="#4D413A" sketch:type="MSShapeGroup" x="24" y="0" width="4" height="4"></rect>
                <rect id="Rectangle-379-Copy-32" fill="#4D413A" sketch:type="MSShapeGroup" x="8" y="0" width="8" height="4"></rect>
                <rect id="Rectangle-379-Copy-33" fill="#4D413A" sketch:type="MSShapeGroup" x="8" y="4" width="4" height="4"></rect>
                <rect id="Rectangle-379-Copy-31" fill="#3C3B3B" sketch:type="MSShapeGroup" x="28" y="0" width="4" height="4"></rect>
                <rect id="Rectangle-379-Copy-34" fill="#4D413A" sketch:type="MSShapeGroup" x="28" y="20" width="4" height="4"></rect>
            </g>
        </g>
    </g>
</svg>