<?xml version="1.0" encoding="UTF-8" standalone="no"?>
<svg width="128px" height="64px" viewBox="0 0 128 64" version="1.1" xmlns="http://www.w3.org/2000/svg" xmlns:xlink="http://www.w3.org/1999/xlink" xmlns:sketch="http://www.bohemiancoding.com/sketch/ns">
    <!-- Generator: Sketch 3.5.2 (25235) - http://www.bohemiancoding.com/sketch -->
    <title>Artboard 2</title>
    <desc>Created with Sketch.</desc>
    <defs></defs>
    <g id="Page-1" stroke="none" stroke-width="1" fill="none" fill-rule="evenodd" sketch:type="MSPage">
        <g id="Artboard-2" sketch:type="MSArtboardGroup">
            <rect id="Rectangle-314" fill="#000000" sketch:type="MSShapeGroup" x="0" y="0" width="128" height="64"></rect>
            <g id="Group" sketch:type="MSLayerGroup" transform="translate(-54.000000, 3.000000)">
                <g id="Group-2" transform="translate(97.000000, 0.000000)" sketch:type="MSShapeGroup">
                    <g id="Group-3">
                        <rect id="Rectangle-163" fill="#B4B490" x="1" y="1" width="60" height="28"></rect>
                        <rect id="Rectangle-134" fill="#D7D7B3" x="5" y="1" width="56" height="4"></rect>
                        <rect id="Rectangle-134-Copy" fill="#D7D7B3" x="1" y="5" width="4" height="20"></rect>
                        <rect id="Rectangle-134-Copy-2" fill="#D7D7B3" x="9" y="5" width="4" height="4"></rect>
                        <rect id="Rectangle-134-Copy-27" fill="#FBFBD4" x="1" y="1" width="4" height="4"></rect>
                        <rect id="Rectangle-134-Copy-3" fill="#D7D7B3" x="21" y="5" width="4" height="8"></rect>
                        <rect id="Rectangle-134-Copy-4" fill="#D7D7B3" x="21" y="5" width="4" height="8"></rect>
                        <rect id="Rectangle-134-Copy-5" fill="#D7D7B3" x="21" y="5" width="4" height="8"></rect>
                        <rect id="Rectangle-134-Copy-19" fill="#92924A" x="9" y="17" width="4" height="8"></rect>
                        <rect id="Rectangle-134-Copy-20" fill="#92924A" x="13" y="21" width="4" height="4"></rect>
                        <rect id="Rectangle-134-Copy-21" fill="#92924A" x="21" y="21" width="4" height="4"></rect>
                        <rect id="Rectangle-134-Copy-23" fill="#92924A" x="37" y="21" width="4" height="4"></rect>
                        <rect id="Rectangle-134-Copy-24" fill="#92924A" x="45" y="17" width="4" height="4"></rect>
                        <rect id="Rectangle-134-Copy-25" fill="#92924A" x="48" y="21" width="8" height="4"></rect>
                        <rect id="Rectangle-134-Copy-26" fill="#92924A" x="1" y="25" width="60" height="4"></rect>
                        <rect id="Rectangle-134-Copy-22" fill="#92924A" x="33" y="17" width="4" height="8"></rect>
                        <rect id="Rectangle-134-Copy-6" fill="#D7D7B3" x="25" y="5" width="4" height="4"></rect>
                        <rect id="Rectangle-134-Copy-7" fill="#D7D7B3" x="37" y="5" width="4" height="4"></rect>
                        <rect id="Rectangle-134-Copy-8" fill="#D7D7B3" x="49" y="5" width="4" height="4"></rect>
                        <rect id="Rectangle-134-Copy-9" fill="#D7D7B3" x="45" y="13" width="4" height="4"></rect>
                        <rect id="Rectangle-134-Copy-28" fill="#7F7F20" x="57" y="25" width="4" height="4"></rect>
                        <rect id="Rectangle-134-Copy-10" fill="#D7D7B3" x="29" y="13" width="4" height="4"></rect>
                        <rect id="Rectangle-134-Copy-11" fill="#B4B471" x="13" y="13" width="4" height="4"></rect>
                        <rect id="Rectangle-134-Copy-12" fill="#B4B471" x="17" y="9" width="4" height="4"></rect>
                        <rect id="Rectangle-134-Copy-13" fill="#B4B471" x="17" y="17" width="4" height="4"></rect>
                        <rect id="Rectangle-134-Copy-14" fill="#B4B471" x="25" y="21" width="4" height="4"></rect>
                        <rect id="Rectangle-134-Copy-15" fill="#B4B471" x="37" y="13" width="4" height="4"></rect>
                        <rect id="Rectangle-134-Copy-16" fill="#B4B471" x="49" y="17" width="4" height="4"></rect>
                        <rect id="Rectangle-134-Copy-17" fill="#B4B471" x="53" y="9" width="4" height="4"></rect>
                        <rect id="Rectangle-134-Copy-18" fill="#B4B471" x="57" y="5" width="4" height="20"></rect>
                        <path d="M1.5,1.5 L60.5762215,1.5" id="Line" stroke="#A2A287" stroke-linecap="square"></path>
                        <path d="M1,1.5 L1,28.5" id="Line-Copy-2" stroke="#A2A287" stroke-linecap="square"></path>
                        <path d="M1,28.5 L60.5762215,28.5" id="Line-Copy" stroke="#6C6C36" stroke-linecap="square"></path>
                        <path d="M61,1.5 L61,28.5047169" id="Line-Copy-3" stroke="#6C6C36" stroke-linecap="square"></path>
                    </g>
                </g>
                <g id="Group-2-Copy-4" transform="translate(31.000000, 0.000000)" sketch:type="MSShapeGroup">
                    <g id="Group-3">
                        <rect id="Rectangle-163" fill="#B4B490" x="1" y="1" width="60" height="28"></rect>
                        <rect id="Rectangle-134" fill="#D7D7B3" x="5" y="1" width="56" height="4"></rect>
                        <rect id="Rectangle-134-Copy-3" fill="#D7D7B3" x="21" y="5" width="4" height="8"></rect>
                        <rect id="Rectangle-134-Copy-4" fill="#D7D7B3" x="21" y="5" width="4" height="8"></rect>
                        <rect id="Rectangle-134-Copy-5" fill="#D7D7B3" x="21" y="5" width="4" height="8"></rect>
                        <rect id="Rectangle-134-Copy-21" fill="#92924A" x="21" y="21" width="4" height="4"></rect>
                        <rect id="Rectangle-134-Copy-23" fill="#92924A" x="37" y="21" width="4" height="4"></rect>
                        <rect id="Rectangle-134-Copy-24" fill="#92924A" x="45" y="17" width="4" height="4"></rect>
                        <rect id="Rectangle-134-Copy-25" fill="#92924A" x="48" y="21" width="8" height="4"></rect>
                        <rect id="Rectangle-134-Copy-26" fill="#92924A" x="1" y="25" width="60" height="4"></rect>
                        <rect id="Rectangle-134-Copy-22" fill="#92924A" x="33" y="17" width="4" height="8"></rect>
                        <rect id="Rectangle-134-Copy-6" fill="#D7D7B3" x="25" y="5" width="4" height="4"></rect>
                        <rect id="Rectangle-134-Copy-7" fill="#D7D7B3" x="37" y="5" width="4" height="4"></rect>
                        <rect id="Rectangle-134-Copy-8" fill="#D7D7B3" x="49" y="5" width="4" height="4"></rect>
                        <rect id="Rectangle-134-Copy-9" fill="#D7D7B3" x="45" y="13" width="4" height="4"></rect>
                        <rect id="Rectangle-134-Copy-28" fill="#7F7F20" x="57" y="25" width="4" height="4"></rect>
                        <rect id="Rectangle-134-Copy-10" fill="#D7D7B3" x="29" y="13" width="4" height="4"></rect>
                        <rect id="Rectangle-134-Copy-14" fill="#B4B471" x="25" y="21" width="4" height="4"></rect>
                        <rect id="Rectangle-134-Copy-15" fill="#B4B471" x="37" y="13" width="4" height="4"></rect>
                        <rect id="Rectangle-134-Copy-16" fill="#B4B471" x="49" y="17" width="4" height="4"></rect>
                        <rect id="Rectangle-134-Copy-17" fill="#B4B471" x="53" y="9" width="4" height="4"></rect>
                        <rect id="Rectangle-134-Copy-18" fill="#B4B471" x="57" y="5" width="4" height="20"></rect>
                        <path d="M1.5,1.5 L60.5762215,1.5" id="Line" stroke="#A2A287" stroke-linecap="square"></path>
                        <path d="M1,28.5 L60.5762215,28.5" id="Line-Copy" stroke="#6C6C36" stroke-linecap="square"></path>
                        <path d="M61,1.5 L61,28.5047169" id="Line-Copy-3" stroke="#6C6C36" stroke-linecap="square"></path>
                    </g>
                </g>
                <g id="Group-2-Copy" transform="translate(65.000000, 32.000000)" sketch:type="MSShapeGroup">
                    <g id="Group-3">
                        <rect id="Rectangle-163" fill="#B4B490" x="1" y="1" width="60" height="28"></rect>
                        <rect id="Rectangle-134" fill="#D7D7B3" x="5" y="1" width="56" height="4"></rect>
                        <rect id="Rectangle-134-Copy" fill="#D7D7B3" x="1" y="5" width="4" height="20"></rect>
                        <rect id="Rectangle-134-Copy-2" fill="#D7D7B3" x="9" y="5" width="4" height="4"></rect>
                        <rect id="Rectangle-134-Copy-27" fill="#FBFBD4" x="1" y="1" width="4" height="4"></rect>
                        <rect id="Rectangle-134-Copy-3" fill="#D7D7B3" x="21" y="5" width="4" height="8"></rect>
                        <rect id="Rectangle-134-Copy-4" fill="#D7D7B3" x="21" y="5" width="4" height="8"></rect>
                        <rect id="Rectangle-134-Copy-5" fill="#D7D7B3" x="21" y="5" width="4" height="8"></rect>
                        <rect id="Rectangle-134-Copy-19" fill="#92924A" x="9" y="17" width="4" height="8"></rect>
                        <rect id="Rectangle-134-Copy-20" fill="#92924A" x="13" y="21" width="4" height="4"></rect>
                        <rect id="Rectangle-134-Copy-21" fill="#92924A" x="21" y="21" width="4" height="4"></rect>
                        <rect id="Rectangle-134-Copy-23" fill="#92924A" x="37" y="21" width="4" height="4"></rect>
                        <rect id="Rectangle-134-Copy-24" fill="#92924A" x="45" y="17" width="4" height="4"></rect>
                        <rect id="Rectangle-134-Copy-25" fill="#92924A" x="48" y="21" width="8" height="4"></rect>
                        <rect id="Rectangle-134-Copy-26" fill="#92924A" x="1" y="25" width="60" height="4"></rect>
                        <rect id="Rectangle-134-Copy-22" fill="#92924A" x="33" y="17" width="4" height="8"></rect>
                        <rect id="Rectangle-134-Copy-6" fill="#D7D7B3" x="25" y="5" width="4" height="4"></rect>
                        <rect id="Rectangle-134-Copy-7" fill="#D7D7B3" x="37" y="5" width="4" height="4"></rect>
                        <rect id="Rectangle-134-Copy-8" fill="#D7D7B3" x="49" y="5" width="4" height="4"></rect>
                        <rect id="Rectangle-134-Copy-9" fill="#D7D7B3" x="45" y="13" width="4" height="4"></rect>
                        <rect id="Rectangle-134-Copy-28" fill="#7F7F20" x="57" y="25" width="4" height="4"></rect>
                        <rect id="Rectangle-134-Copy-10" fill="#D7D7B3" x="29" y="13" width="4" height="4"></rect>
                        <rect id="Rectangle-134-Copy-11" fill="#B4B471" x="13" y="13" width="4" height="4"></rect>
                        <rect id="Rectangle-134-Copy-12" fill="#B4B471" x="17" y="9" width="4" height="4"></rect>
                        <rect id="Rectangle-134-Copy-13" fill="#B4B471" x="17" y="17" width="4" height="4"></rect>
                        <rect id="Rectangle-134-Copy-14" fill="#B4B471" x="25" y="21" width="4" height="4"></rect>
                        <rect id="Rectangle-134-Copy-15" fill="#B4B471" x="37" y="13" width="4" height="4"></rect>
                        <rect id="Rectangle-134-Copy-16" fill="#B4B471" x="49" y="17" width="4" height="4"></rect>
                        <rect id="Rectangle-134-Copy-17" fill="#B4B471" x="53" y="9" width="4" height="4"></rect>
                        <rect id="Rectangle-134-Copy-18" fill="#B4B471" x="57" y="5" width="4" height="20"></rect>
                        <path d="M1.5,1.5 L60.5762215,1.5" id="Line" stroke="#A2A287" stroke-linecap="square"></path>
                        <path d="M1,1.5 L1,28.5" id="Line-Copy-2" stroke="#A2A287" stroke-linecap="square"></path>
                        <path d="M1,28.5 L60.5762215,28.5" id="Line-Copy" stroke="#6C6C36" stroke-linecap="square"></path>
                        <path d="M61,1.5 L61,28.5047169" id="Line-Copy-3" stroke="#6C6C36" stroke-linecap="square"></path>
                    </g>
                </g>
                <g id="Group-2-Copy-2" transform="translate(130.000000, 32.000000)" sketch:type="MSShapeGroup">
                    <g id="Group-3">
                        <rect id="Rectangle-163" fill="#B4B490" x="1" y="1" width="60" height="28"></rect>
                        <rect id="Rectangle-134" fill="#D7D7B3" x="5" y="1" width="56" height="4"></rect>
                        <rect id="Rectangle-134-Copy" fill="#D7D7B3" x="1" y="5" width="4" height="20"></rect>
                        <rect id="Rectangle-134-Copy-2" fill="#D7D7B3" x="9" y="5" width="4" height="4"></rect>
                        <rect id="Rectangle-134-Copy-27" fill="#FBFBD4" x="1" y="1" width="4" height="4"></rect>
                        <rect id="Rectangle-134-Copy-3" fill="#D7D7B3" x="21" y="5" width="4" height="8"></rect>
                        <rect id="Rectangle-134-Copy-4" fill="#D7D7B3" x="21" y="5" width="4" height="8"></rect>
                        <rect id="Rectangle-134-Copy-5" fill="#D7D7B3" x="21" y="5" width="4" height="8"></rect>
                        <rect id="Rectangle-134-Copy-19" fill="#92924A" x="9" y="17" width="4" height="8"></rect>
                        <rect id="Rectangle-134-Copy-20" fill="#92924A" x="13" y="21" width="4" height="4"></rect>
                        <rect id="Rectangle-134-Copy-21" fill="#92924A" x="21" y="21" width="4" height="4"></rect>
                        <rect id="Rectangle-134-Copy-23" fill="#92924A" x="37" y="21" width="4" height="4"></rect>
                        <rect id="Rectangle-134-Copy-24" fill="#92924A" x="45" y="17" width="4" height="4"></rect>
                        <rect id="Rectangle-134-Copy-25" fill="#92924A" x="48" y="21" width="8" height="4"></rect>
                        <rect id="Rectangle-134-Copy-26" fill="#92924A" x="1" y="25" width="60" height="4"></rect>
                        <rect id="Rectangle-134-Copy-22" fill="#92924A" x="33" y="17" width="4" height="8"></rect>
                        <rect id="Rectangle-134-Copy-6" fill="#D7D7B3" x="25" y="5" width="4" height="4"></rect>
                        <rect id="Rectangle-134-Copy-7" fill="#D7D7B3" x="37" y="5" width="4" height="4"></rect>
                        <rect id="Rectangle-134-Copy-8" fill="#D7D7B3" x="49" y="5" width="4" height="4"></rect>
                        <rect id="Rectangle-134-Copy-9" fill="#D7D7B3" x="45" y="13" width="4" height="4"></rect>
                        <rect id="Rectangle-134-Copy-10" fill="#D7D7B3" x="29" y="13" width="4" height="4"></rect>
                        <rect id="Rectangle-134-Copy-11" fill="#B4B471" x="13" y="13" width="4" height="4"></rect>
                        <rect id="Rectangle-134-Copy-12" fill="#B4B471" x="17" y="9" width="4" height="4"></rect>
                        <rect id="Rectangle-134-Copy-13" fill="#B4B471" x="17" y="17" width="4" height="4"></rect>
                        <rect id="Rectangle-134-Copy-14" fill="#B4B471" x="25" y="21" width="4" height="4"></rect>
                        <rect id="Rectangle-134-Copy-15" fill="#B4B471" x="37" y="13" width="4" height="4"></rect>
                        <rect id="Rectangle-134-Copy-16" fill="#B4B471" x="49" y="17" width="4" height="4"></rect>
                        <path d="M1.5,1.5 L60.5762215,1.5" id="Line" stroke="#A2A287" stroke-linecap="square"></path>
                        <path d="M1,1.5 L1,28.5" id="Line-Copy-2" stroke="#A2A287" stroke-linecap="square"></path>
                        <path d="M1,28.5 L60.5762215,28.5" id="Line-Copy" stroke="#6C6C36" stroke-linecap="square"></path>
                    </g>
                </g>
                <g id="Group-2-Copy-3" transform="translate(0.000000, 32.000000)" sketch:type="MSShapeGroup">
                    <g id="Group-3">
                        <rect id="Rectangle-163" fill="#B4B490" x="1" y="1" width="60" height="28"></rect>
                        <rect id="Rectangle-134" fill="#D7D7B3" x="5" y="1" width="56" height="4"></rect>
                        <rect id="Rectangle-134-Copy-25" fill="#92924A" x="48" y="21" width="8" height="4"></rect>
                        <rect id="Rectangle-134-Copy-26" fill="#92924A" x="1" y="25" width="60" height="4"></rect>
                        <rect id="Rectangle-134-Copy-28" fill="#7F7F20" x="57" y="25" width="4" height="4"></rect>
                        <rect id="Rectangle-134-Copy-17" fill="#B4B471" x="53" y="9" width="4" height="4"></rect>
                        <rect id="Rectangle-134-Copy-18" fill="#B4B471" x="57" y="5" width="4" height="20"></rect>
                        <path d="M1.5,1.5 L60.5762215,1.5" id="Line" stroke="#A2A287" stroke-linecap="square"></path>
                        <path d="M1,28.5 L60.5762215,28.5" id="Line-Copy" stroke="#6C6C36" stroke-linecap="square"></path>
                        <path d="M61,1.5 L61,28.5047169" id="Line-Copy-3" stroke="#6C6C36" stroke-linecap="square"></path>
                    </g>
                </g>
            </g>
            <rect id="Rectangle-163-Copy-2" fill="#B4B490" sketch:type="MSShapeGroup" x="109" y="4" width="60" height="28"></rect>
            <rect id="Rectangle-134-Copy-86" fill="#D7D7B3" sketch:type="MSShapeGroup" x="113" y="4" width="56" height="4"></rect>
            <rect id="Rectangle-134-Copy-85" fill="#D7D7B3" sketch:type="MSShapeGroup" x="109" y="8" width="4" height="20"></rect>
            <rect id="Rectangle-134-Copy-84" fill="#D7D7B3" sketch:type="MSShapeGroup" x="117" y="8" width="4" height="4"></rect>
            <rect id="Rectangle-134-Copy-83" fill="#FBFBD4" sketch:type="MSShapeGroup" x="109" y="4" width="4" height="4"></rect>
            <rect id="Rectangle-134-Copy-79" fill="#92924A" sketch:type="MSShapeGroup" x="117" y="20" width="4" height="8"></rect>
            <rect id="Rectangle-134-Copy-78" fill="#92924A" sketch:type="MSShapeGroup" x="121" y="24" width="4" height="4"></rect>
            <rect id="Rectangle-134-Copy-73" fill="#92924A" sketch:type="MSShapeGroup" x="109" y="28" width="60" height="4"></rect>
            <rect id="Rectangle-134-Copy-65" fill="#B4B471" sketch:type="MSShapeGroup" x="121" y="16" width="4" height="4"></rect>
            <rect id="Rectangle-134-Copy-64" fill="#B4B471" sketch:type="MSShapeGroup" x="125" y="12" width="4" height="4"></rect>
            <rect id="Rectangle-134-Copy-63" fill="#B4B471" sketch:type="MSShapeGroup" x="125" y="20" width="4" height="4"></rect>
            <path d="M109.5,4.5 L168.576221,4.5" id="Line-Copy-11" stroke="#A2A287" stroke-linecap="square" sketch:type="MSShapeGroup"></path>
            <path d="M109,4.5 L109,31.5" id="Line-Copy-10" stroke="#A2A287" stroke-linecap="square" sketch:type="MSShapeGroup"></path>
            <path d="M109,31.5 L168.576221,31.5" id="Line-Copy-9" stroke="#6C6C36" stroke-linecap="square" sketch:type="MSShapeGroup"></path>
        </g>
    </g>
</svg>