<?xml version="1.0" encoding="UTF-8" standalone="no"?>
<svg width="128px" height="128px" viewBox="0 0 128 128" version="1.1" xmlns="http://www.w3.org/2000/svg" xmlns:xlink="http://www.w3.org/1999/xlink" xmlns:sketch="http://www.bohemiancoding.com/sketch/ns">
    <!-- Generator: Sketch 3.5.2 (25235) - http://www.bohemiancoding.com/sketch -->
    <title>Artboard 4</title>
    <desc>Created with Sketch.</desc>
    <defs></defs>
    <g id="Page-1" stroke="none" stroke-width="1" fill="none" fill-rule="evenodd" sketch:type="MSPage">
        <g id="Artboard-4" sketch:type="MSArtboardGroup">
            <g id="Group-2-Copy" sketch:type="MSLayerGroup" transform="translate(2.000000, 32.000000)">
                <g id="Group" transform="translate(2.000000, 4.000000)" fill="#B4B4B4" sketch:type="MSShapeGroup">
                    <rect id="Rectangle-556" x="0" y="56" width="4" height="4"></rect>
                    <rect id="Rectangle-556-Copy" x="4" y="52" width="4" height="4"></rect>
                    <rect id="Rectangle-556-Copy-2" x="8" y="48" width="4" height="4"></rect>
                    <rect id="Rectangle-556-Copy-3" x="12" y="44" width="4" height="4"></rect>
                    <rect id="Rectangle-556-Copy-4" x="16" y="40" width="4" height="4"></rect>
                    <rect id="Rectangle-556-Copy-9" x="20" y="36" width="4" height="4"></rect>
                    <rect id="Rectangle-556-Copy-8" x="24" y="32" width="4" height="4"></rect>
                    <rect id="Rectangle-556-Copy-7" x="28" y="28" width="4" height="4"></rect>
                    <rect id="Rectangle-556-Copy-6" x="32" y="24" width="4" height="4"></rect>
                    <rect id="Rectangle-556-Copy-5" x="36" y="20" width="4" height="4"></rect>
                    <rect id="Rectangle-556-Copy-14" x="40" y="16" width="4" height="4"></rect>
                    <rect id="Rectangle-556-Copy-13" x="44" y="12" width="4" height="4"></rect>
                    <rect id="Rectangle-556-Copy-12" x="48" y="8" width="4" height="4"></rect>
                    <rect id="Rectangle-556-Copy-11" x="52" y="4" width="4" height="4"></rect>
                    <rect id="Rectangle-556-Copy-10" x="56" y="0" width="4" height="4"></rect>
                </g>
                <g id="Group-Copy" sketch:type="MSShapeGroup">
                    <rect id="Rectangle-651" fill="#6C6C6C" transform="translate(45.991507, 45.991507) rotate(-315.000000) translate(-45.991507, -45.991507) " x="24.8009718" y="2.14022946" width="42.3810711" height="87.7025557"></rect>
                    <rect id="Rectangle-556" fill="#000000" x="2" y="56" width="4" height="4"></rect>
                    <rect id="Rectangle-556-Copy" fill="#000000" x="6" y="52" width="4" height="4"></rect>
                    <rect id="Rectangle-556-Copy-2" fill="#000000" x="10" y="48" width="4" height="4"></rect>
                    <rect id="Rectangle-556-Copy-3" fill="#000000" x="14" y="44" width="4" height="4"></rect>
                    <rect id="Rectangle-556-Copy-4" fill="#000000" x="18" y="40" width="4" height="4"></rect>
                    <rect id="Rectangle-556-Copy-9" fill="#000000" x="22" y="36" width="4" height="4"></rect>
                    <rect id="Rectangle-556-Copy-8" fill="#000000" x="26" y="32" width="4" height="4"></rect>
                    <rect id="Rectangle-556-Copy-7" fill="#000000" x="30" y="28" width="4" height="4"></rect>
                    <rect id="Rectangle-556-Copy-6" fill="#000000" x="34" y="24" width="4" height="4"></rect>
                    <rect id="Rectangle-556-Copy-5" fill="#000000" x="38" y="20" width="4" height="4"></rect>
                    <rect id="Rectangle-556-Copy-14" fill="#000000" x="42" y="16" width="4" height="4"></rect>
                    <rect id="Rectangle-556-Copy-13" fill="#000000" x="46" y="12" width="4" height="4"></rect>
                    <rect id="Rectangle-556-Copy-12" fill="#000000" x="50" y="8" width="4" height="4"></rect>
                    <rect id="Rectangle-556-Copy-11" fill="#000000" x="54" y="4" width="4" height="4"></rect>
                    <rect id="Rectangle-556-Copy-10" fill="#000000" x="58" y="0" width="4" height="4"></rect>
                    <rect id="Rectangle-556-Copy-15" fill="#000000" x="62" y="0" width="4" height="4"></rect>
                    <rect id="Rectangle-556-Copy-16" fill="#000000" x="66" y="4" width="4" height="4"></rect>
                    <rect id="Rectangle-556-Copy-17" fill="#000000" x="70" y="8" width="4" height="4"></rect>
                    <rect id="Rectangle-556-Copy-18" fill="#000000" x="74" y="12" width="4" height="4"></rect>
                    <rect id="Rectangle-556-Copy-19" fill="#000000" x="78" y="16" width="4" height="4"></rect>
                    <rect id="Rectangle-556-Copy-20" fill="#000000" x="82" y="20" width="4" height="4"></rect>
                    <rect id="Rectangle-556-Copy-21" fill="#000000" x="86" y="24" width="4" height="4"></rect>
                    <rect id="Rectangle-556-Copy-22" fill="#000000" x="90" y="28" width="4" height="4"></rect>
                    <rect id="Rectangle-556-Copy-23" fill="#909090" x="10" y="60" width="4" height="4"></rect>
                    <rect id="Rectangle-556-Copy-24" fill="#909090" x="14" y="52" width="4" height="8"></rect>
                    <rect id="Rectangle-556-Copy-25" fill="#909090" x="22" y="56" width="4" height="4"></rect>
                    <rect id="Rectangle-556-Copy-26" fill="#909090" x="22" y="48" width="4" height="4"></rect>
                    <rect id="Rectangle-556-Copy-27" fill="#909090" x="26" y="40" width="4" height="8"></rect>
                    <rect id="Rectangle-556-Copy-28" fill="#909090" x="30" y="40" width="4" height="4"></rect>
                    <rect id="Rectangle-556-Copy-29" fill="#909090" x="34" y="48" width="4" height="4"></rect>
                    <rect id="Rectangle-556-Copy-30" fill="#909090" x="34" y="32" width="4" height="4"></rect>
                    <rect id="Rectangle-556-Copy-31" fill="#909090" x="38" y="36" width="4" height="4"></rect>
                    <rect id="Rectangle-556-Copy-32" fill="#909090" x="42" y="28" width="4" height="4"></rect>
                    <rect id="Rectangle-556-Copy-67" fill="#909090" x="26" y="88" width="4" height="4"></rect>
                    <rect id="Rectangle-556-Copy-68" fill="#909090" x="22" y="84" width="4" height="4"></rect>
                    <rect id="Rectangle-556-Copy-69" fill="#909090" x="18" y="80" width="4" height="4"></rect>
                    <rect id="Rectangle-556-Copy-70" fill="#909090" x="14" y="76" width="4" height="4"></rect>
                    <rect id="Rectangle-556-Copy-71" fill="#909090" transform="translate(12.000000, 74.000000) scale(-1, 1) translate(-12.000000, -74.000000) " x="10" y="72" width="4" height="4"></rect>
                    <rect id="Rectangle-556-Copy-72" fill="#909090" transform="translate(8.000000, 70.000000) scale(-1, 1) translate(-8.000000, -70.000000) " x="6" y="68" width="4" height="4"></rect>
                    <rect id="Rectangle-556-Copy-73" fill="#909090" transform="translate(4.000000, 66.000000) scale(-1, 1) translate(-4.000000, -66.000000) " x="2" y="64" width="4" height="4"></rect>
                    <rect id="Rectangle-556-Copy-33" fill="#909090" x="46" y="24" width="4" height="4"></rect>
                    <rect id="Rectangle-556-Copy-34" fill="#909090" x="50" y="20" width="4" height="4"></rect>
                    <rect id="Rectangle-556-Copy-35" fill="#909090" x="54" y="12" width="4" height="4"></rect>
                    <rect id="Rectangle-556-Copy-36" fill="#909090" x="58" y="8" width="4" height="4"></rect>
                    <rect id="Rectangle-556-Copy-37" fill="#909090" x="62" y="12" width="4" height="4"></rect>
                    <rect id="Rectangle-556-Copy-38" fill="#6C6C6C" x="62" y="8" width="4" height="4"></rect>
                    <rect id="Rectangle-556-Copy-39" fill="#484848" x="62" y="4" width="4" height="4"></rect>
                    <rect id="Rectangle-556-Copy-40" fill="#484848" x="66" y="8" width="4" height="4"></rect>
                    <rect id="Rectangle-556-Copy-41" fill="#484848" x="70" y="12" width="4" height="4"></rect>
                    <rect id="Rectangle-556-Copy-42" fill="#484848" x="74" y="16" width="4" height="4"></rect>
                    <rect id="Rectangle-556-Copy-43" fill="#484848" x="78" y="20" width="4" height="4"></rect>
                    <rect id="Rectangle-556-Copy-44" fill="#484848" x="82" y="24" width="4" height="4"></rect>
                    <rect id="Rectangle-556-Copy-47" fill="#484848" x="82" y="36" width="4" height="4"></rect>
                    <rect id="Rectangle-556-Copy-54" fill="#484848" x="74" y="32" width="4" height="4"></rect>
                    <rect id="Rectangle-556-Copy-55" fill="#484848" x="66" y="36" width="4" height="4"></rect>
                    <rect id="Rectangle-556-Copy-56" fill="#484848" x="66" y="44" width="4" height="4"></rect>
                    <rect id="Rectangle-556-Copy-78" fill="#484848" x="70" y="48" width="4" height="4"></rect>
                    <rect id="Rectangle-556-Copy-79" fill="#484848" x="66" y="52" width="4" height="4"></rect>
                    <rect id="Rectangle-556-Copy-57" fill="#484848" x="58" y="48" width="4" height="4"></rect>
                    <rect id="Rectangle-556-Copy-58" fill="#484848" x="50" y="52" width="4" height="4"></rect>
                    <rect id="Rectangle-556-Copy-74" fill="#484848" x="50" y="60" width="4" height="4"></rect>
                    <rect id="Rectangle-556-Copy-75" fill="#484848" x="50" y="68" width="4" height="4"></rect>
                    <rect id="Rectangle-556-Copy-76" fill="#484848" x="54" y="64" width="4" height="4"></rect>
                    <rect id="Rectangle-556-Copy-77" fill="#484848" x="46" y="72" width="4" height="4"></rect>
                    <rect id="Rectangle-556-Copy-59" fill="#484848" x="42" y="56" width="4" height="4"></rect>
                    <rect id="Rectangle-556-Copy-60" fill="#484848" x="38" y="64" width="4" height="4"></rect>
                    <rect id="Rectangle-556-Copy-61" fill="#484848" x="26" y="68" width="4" height="4"></rect>
                    <rect id="Rectangle-556-Copy-62" fill="#484848" x="34" y="72" width="4" height="4"></rect>
                    <rect id="Rectangle-556-Copy-63" fill="#484848" x="26" y="76" width="4" height="4"></rect>
                    <rect id="Rectangle-556-Copy-64" fill="#484848" x="30" y="80" width="4" height="4"></rect>
                    <rect id="Rectangle-556-Copy-65" fill="#484848" x="34" y="84" width="4" height="4"></rect>
                    <rect id="Rectangle-556-Copy-66" fill="#484848" x="30" y="88" width="4" height="4"></rect>
                    <rect id="Rectangle-556-Copy-48" fill="#484848" x="78" y="36" width="4" height="8"></rect>
                    <rect id="Rectangle-556-Copy-49" fill="#484848" x="74" y="40" width="4" height="8"></rect>
                    <rect id="Rectangle-556-Copy-50" fill="#484848" x="62" y="52" width="4" height="8"></rect>
                    <rect id="Rectangle-556-Copy-51" fill="#484848" x="58" y="56" width="4" height="8"></rect>
                    <rect id="Rectangle-556-Copy-52" fill="#484848" x="42" y="69" width="4" height="11"></rect>
                    <rect id="Rectangle-556-Copy-53" fill="#484848" x="38" y="76" width="4" height="8"></rect>
                    <rect id="Rectangle-556-Copy-45" fill="#484848" x="86" y="28" width="4" height="4"></rect>
                    <rect id="Rectangle-556-Copy-46" fill="#242424" x="86" y="32" width="4" height="4"></rect>
                </g>
            </g>
            <g id="Group-2-Copy-2" sketch:type="MSLayerGroup" transform="translate(2.000000, 96.000000)">
                <g id="Group" transform="translate(2.000000, 4.000000)" fill="#B4B4B4" sketch:type="MSShapeGroup">
                    <rect id="Rectangle-556-Copy-6" x="32" y="24" width="4" height="4"></rect>
                    <rect id="Rectangle-556-Copy-5" x="36" y="20" width="4" height="4"></rect>
                    <rect id="Rectangle-556-Copy-14" x="40" y="16" width="4" height="4"></rect>
                    <rect id="Rectangle-556-Copy-13" x="44" y="12" width="4" height="4"></rect>
                    <rect id="Rectangle-556-Copy-12" x="48" y="8" width="4" height="4"></rect>
                    <rect id="Rectangle-556-Copy-11" x="52" y="4" width="4" height="4"></rect>
                    <rect id="Rectangle-556-Copy-10" x="56" y="0" width="4" height="4"></rect>
                </g>
                <g id="Group-Copy" sketch:type="MSShapeGroup">
                    <rect id="Rectangle-651" fill="#6C6C6C" transform="translate(45.991507, 45.991507) rotate(-315.000000) translate(-45.991507, -45.991507) " x="24.8009718" y="2.14022946" width="42.3810711" height="87.7025557"></rect>
                    <rect id="Rectangle-556-Copy-7" fill="#000000" x="30" y="28" width="4" height="4"></rect>
                    <rect id="Rectangle-556-Copy-6" fill="#000000" x="34" y="24" width="4" height="4"></rect>
                    <rect id="Rectangle-556-Copy-5" fill="#000000" x="38" y="20" width="4" height="4"></rect>
                    <rect id="Rectangle-556-Copy-14" fill="#000000" x="42" y="16" width="4" height="4"></rect>
                    <rect id="Rectangle-556-Copy-13" fill="#000000" x="46" y="12" width="4" height="4"></rect>
                    <rect id="Rectangle-556-Copy-12" fill="#000000" x="50" y="8" width="4" height="4"></rect>
                    <rect id="Rectangle-556-Copy-11" fill="#000000" x="54" y="4" width="4" height="4"></rect>
                    <rect id="Rectangle-556-Copy-10" fill="#000000" x="58" y="0" width="4" height="4"></rect>
                    <rect id="Rectangle-556-Copy-15" fill="#000000" x="62" y="0" width="4" height="4"></rect>
                    <rect id="Rectangle-556-Copy-16" fill="#000000" x="66" y="4" width="4" height="4"></rect>
                    <rect id="Rectangle-556-Copy-17" fill="#000000" x="70" y="8" width="4" height="4"></rect>
                    <rect id="Rectangle-556-Copy-18" fill="#000000" x="74" y="12" width="4" height="4"></rect>
                    <rect id="Rectangle-556-Copy-19" fill="#000000" x="78" y="16" width="4" height="4"></rect>
                    <rect id="Rectangle-556-Copy-20" fill="#000000" x="82" y="20" width="4" height="4"></rect>
                    <rect id="Rectangle-556-Copy-21" fill="#000000" x="86" y="24" width="4" height="4"></rect>
                    <rect id="Rectangle-556-Copy-22" fill="#000000" x="90" y="28" width="4" height="4"></rect>
                    <rect id="Rectangle-556-Copy-32" fill="#909090" x="42" y="28" width="4" height="4"></rect>
                    <rect id="Rectangle-556-Copy-33" fill="#909090" x="46" y="24" width="4" height="4"></rect>
                    <rect id="Rectangle-556-Copy-34" fill="#909090" x="50" y="20" width="4" height="4"></rect>
                    <rect id="Rectangle-556-Copy-35" fill="#909090" x="54" y="12" width="4" height="4"></rect>
                    <rect id="Rectangle-556-Copy-36" fill="#909090" x="58" y="8" width="4" height="4"></rect>
                    <rect id="Rectangle-556-Copy-37" fill="#909090" x="62" y="12" width="4" height="4"></rect>
                    <rect id="Rectangle-556-Copy-38" fill="#6C6C6C" x="62" y="8" width="4" height="4"></rect>
                    <rect id="Rectangle-556-Copy-39" fill="#484848" x="62" y="4" width="4" height="4"></rect>
                    <rect id="Rectangle-556-Copy-40" fill="#484848" x="66" y="8" width="4" height="4"></rect>
                    <rect id="Rectangle-556-Copy-41" fill="#484848" x="70" y="12" width="4" height="4"></rect>
                    <rect id="Rectangle-556-Copy-42" fill="#484848" x="74" y="16" width="4" height="4"></rect>
                    <rect id="Rectangle-556-Copy-43" fill="#484848" x="78" y="20" width="4" height="4"></rect>
                    <rect id="Rectangle-556-Copy-44" fill="#484848" x="82" y="24" width="4" height="4"></rect>
                    <rect id="Rectangle-556-Copy-45" fill="#484848" x="86" y="28" width="4" height="4"></rect>
                </g>
                <g id="Group-Copy-7" transform="translate(64.000000, 0.000000)" sketch:type="MSShapeGroup">
                    <rect id="Rectangle-651" fill="#6C6C6C" transform="translate(45.991507, 45.991507) rotate(-315.000000) translate(-45.991507, -45.991507) " x="24.8009718" y="2.14022946" width="42.3810711" height="87.7025557"></rect>
                    <rect id="Rectangle-556-Copy-7" fill="#000000" x="30" y="28" width="4" height="4"></rect>
                    <rect id="Rectangle-556-Copy-6" fill="#000000" x="34" y="24" width="4" height="4"></rect>
                    <rect id="Rectangle-556-Copy-5" fill="#000000" x="38" y="20" width="4" height="4"></rect>
                    <rect id="Rectangle-556-Copy-14" fill="#000000" x="42" y="16" width="4" height="4"></rect>
                    <rect id="Rectangle-556-Copy-13" fill="#000000" x="46" y="12" width="4" height="4"></rect>
                    <rect id="Rectangle-556-Copy-12" fill="#000000" x="50" y="8" width="4" height="4"></rect>
                    <rect id="Rectangle-556-Copy-11" fill="#000000" x="54" y="4" width="4" height="4"></rect>
                    <rect id="Rectangle-556-Copy-10" fill="#000000" x="58" y="0" width="4" height="4"></rect>
                    <rect id="Rectangle-556-Copy-32" fill="#909090" x="42" y="28" width="4" height="4"></rect>
                    <rect id="Rectangle-556-Copy-33" fill="#909090" x="46" y="24" width="4" height="4"></rect>
                    <rect id="Rectangle-556-Copy-34" fill="#909090" x="50" y="20" width="4" height="4"></rect>
                    <rect id="Rectangle-556-Copy-35" fill="#909090" x="54" y="12" width="4" height="4"></rect>
                    <rect id="Rectangle-556-Copy-36" fill="#909090" x="58" y="8" width="4" height="4"></rect>
                </g>
            </g>
            <g id="Group-2-Copy-3" sketch:type="MSLayerGroup" transform="translate(-62.000000, -32.000000)">
                <g id="Group-Copy" transform="translate(0.000000, 124.000000)" sketch:type="MSShapeGroup">
                    <rect id="Rectangle-651" fill="#6C6C6C" transform="translate(45.991507, 49.991507) rotate(-315.000000) translate(-45.991507, -49.991507) " x="24.8009718" y="6.14022946" width="42.3810711" height="87.7025557"></rect>
                    <rect id="Rectangle-556-Copy-15" fill="#000000" x="62" y="4" width="4" height="4"></rect>
                    <rect id="Rectangle-556-Copy-15" fill="#000000" x="62" y="0" width="4" height="4"></rect>
                    <rect id="Rectangle-556-Copy-16" fill="#000000" x="66" y="8" width="4" height="4"></rect>
                    <rect id="Rectangle-556-Copy-17" fill="#000000" x="70" y="12" width="4" height="4"></rect>
                    <rect id="Rectangle-556-Copy-18" fill="#000000" x="74" y="16" width="4" height="4"></rect>
                    <rect id="Rectangle-556-Copy-19" fill="#000000" x="78" y="20" width="4" height="4"></rect>
                    <rect id="Rectangle-556-Copy-20" fill="#000000" x="82" y="24" width="4" height="4"></rect>
                    <rect id="Rectangle-556-Copy-21" fill="#000000" x="86" y="28" width="4" height="4"></rect>
                    <rect id="Rectangle-556-Copy-22" fill="#000000" x="90" y="32" width="4" height="4"></rect>
                    <rect id="Rectangle-556-Copy-37" fill="#909090" x="62" y="16" width="4" height="4"></rect>
                    <rect id="Rectangle-556-Copy-38" fill="#6C6C6C" x="62" y="12" width="4" height="4"></rect>
                    <rect id="Rectangle-556-Copy-39" fill="#484848" x="62" y="8" width="4" height="4"></rect>
                    <rect id="Rectangle-556-Copy-40" fill="#484848" x="66" y="12" width="4" height="4"></rect>
                    <rect id="Rectangle-556-Copy-41" fill="#484848" x="70" y="16" width="4" height="4"></rect>
                    <rect id="Rectangle-556-Copy-42" fill="#484848" x="74" y="20" width="4" height="4"></rect>
                    <rect id="Rectangle-556-Copy-43" fill="#484848" x="78" y="24" width="4" height="4"></rect>
                    <rect id="Rectangle-556-Copy-44" fill="#484848" x="82" y="28" width="4" height="4"></rect>
                    <rect id="Rectangle-556-Copy-45" fill="#484848" x="86" y="32" width="4" height="4"></rect>
                </g>
                <g id="Group-Copy-2" transform="translate(0.000000, 60.000000)" sketch:type="MSShapeGroup">
                    <rect id="Rectangle-651" fill="#6C6C6C" transform="translate(45.991507, 49.991507) rotate(-315.000000) translate(-45.991507, -49.991507) " x="24.8009718" y="6.14022946" width="42.3810711" height="87.7025557"></rect>
                    <rect id="Rectangle-556-Copy-15" fill="#000000" x="62" y="4" width="4" height="4"></rect>
                    <rect id="Rectangle-556-Copy-16" fill="#000000" x="66" y="8" width="4" height="4"></rect>
                    <rect id="Rectangle-556-Copy-17" fill="#000000" x="70" y="12" width="4" height="4"></rect>
                    <rect id="Rectangle-556-Copy-18" fill="#000000" x="74" y="16" width="4" height="4"></rect>
                    <rect id="Rectangle-556-Copy-19" fill="#000000" x="78" y="20" width="4" height="4"></rect>
                    <rect id="Rectangle-556-Copy-20" fill="#000000" x="82" y="24" width="4" height="4"></rect>
                    <rect id="Rectangle-556-Copy-21" fill="#000000" x="86" y="28" width="4" height="4"></rect>
                    <rect id="Rectangle-556-Copy-22" fill="#000000" x="90" y="32" width="4" height="4"></rect>
                    <rect id="Rectangle-556-Copy-37" fill="#909090" x="62" y="16" width="4" height="4"></rect>
                    <rect id="Rectangle-556-Copy-38" fill="#6C6C6C" x="62" y="12" width="4" height="4"></rect>
                    <rect id="Rectangle-556-Copy-39" fill="#484848" x="62" y="8" width="4" height="4"></rect>
                    <rect id="Rectangle-556-Copy-40" fill="#484848" x="66" y="12" width="4" height="4"></rect>
                    <rect id="Rectangle-556-Copy-41" fill="#484848" x="70" y="16" width="4" height="4"></rect>
                    <rect id="Rectangle-556-Copy-42" fill="#484848" x="74" y="20" width="4" height="4"></rect>
                    <rect id="Rectangle-556-Copy-43" fill="#484848" x="78" y="24" width="4" height="4"></rect>
                    <rect id="Rectangle-556-Copy-44" fill="#484848" x="82" y="28" width="4" height="4"></rect>
                    <rect id="Rectangle-556-Copy-47" fill="#484848" x="82" y="40" width="4" height="4"></rect>
                    <rect id="Rectangle-556-Copy-54" fill="#484848" x="74" y="36" width="4" height="4"></rect>
                    <rect id="Rectangle-556-Copy-55" fill="#484848" x="66" y="40" width="4" height="4"></rect>
                    <rect id="Rectangle-556-Copy-56" fill="#484848" x="66" y="48" width="4" height="4"></rect>
                    <rect id="Rectangle-556-Copy-78" fill="#484848" x="70" y="52" width="4" height="4"></rect>
                    <rect id="Rectangle-556-Copy-79" fill="#484848" x="66" y="56" width="4" height="4"></rect>
                    <rect id="Rectangle-556-Copy-48" fill="#484848" x="78" y="40" width="4" height="8"></rect>
                    <rect id="Rectangle-556-Copy-49" fill="#484848" x="74" y="44" width="4" height="8"></rect>
                    <rect id="Rectangle-556-Copy-50" fill="#484848" x="62" y="56" width="4" height="8"></rect>
                    <rect id="Rectangle-556-Copy-45" fill="#484848" x="86" y="32" width="4" height="4"></rect>
                    <rect id="Rectangle-556-Copy-46" fill="#242424" x="86" y="36" width="4" height="4"></rect>
                    <rect id="Rectangle-556-Copy-15" fill="#000000" x="62" y="0" width="4" height="4"></rect>
                </g>
                <g id="Group-Copy-3" transform="translate(128.000000, 64.000000)" sketch:type="MSShapeGroup">
                    <rect id="Rectangle-651" fill="#6C6C6C" transform="translate(45.991507, 45.991507) rotate(-315.000000) translate(-45.991507, -45.991507) " x="24.8009718" y="2.14022946" width="42.3810711" height="87.7025557"></rect>
                    <rect id="Rectangle-556" fill="#000000" x="2" y="56" width="4" height="4"></rect>
                    <rect id="Rectangle-556-Copy" fill="#000000" x="6" y="52" width="4" height="4"></rect>
                    <rect id="Rectangle-556-Copy-2" fill="#000000" x="10" y="48" width="4" height="4"></rect>
                    <rect id="Rectangle-556-Copy-3" fill="#000000" x="14" y="44" width="4" height="4"></rect>
                    <rect id="Rectangle-556-Copy-4" fill="#000000" x="18" y="40" width="4" height="4"></rect>
                    <rect id="Rectangle-556-Copy-9" fill="#000000" x="22" y="36" width="4" height="4"></rect>
                    <rect id="Rectangle-556-Copy-8" fill="#000000" x="26" y="32" width="4" height="4"></rect>
                    <rect id="Rectangle-556-Copy-7" fill="#000000" x="30" y="28" width="4" height="4"></rect>
                    <rect id="Rectangle-556-Copy-6" fill="#000000" x="34" y="24" width="4" height="4"></rect>
                    <rect id="Rectangle-556-Copy-5" fill="#000000" x="38" y="20" width="4" height="4"></rect>
                    <rect id="Rectangle-556-Copy-14" fill="#000000" x="42" y="16" width="4" height="4"></rect>
                    <rect id="Rectangle-556-Copy-13" fill="#000000" x="46" y="12" width="4" height="4"></rect>
                    <rect id="Rectangle-556-Copy-12" fill="#000000" x="50" y="8" width="4" height="4"></rect>
                    <rect id="Rectangle-556-Copy-11" fill="#000000" x="54" y="4" width="4" height="4"></rect>
                    <rect id="Rectangle-556-Copy-10" fill="#000000" x="58" y="0" width="4" height="4"></rect>
                    <rect id="Rectangle-556-Copy-23" fill="#909090" x="10" y="60" width="4" height="4"></rect>
                    <rect id="Rectangle-556-Copy-24" fill="#909090" x="14" y="52" width="4" height="8"></rect>
                    <rect id="Rectangle-556-Copy-25" fill="#909090" x="22" y="56" width="4" height="4"></rect>
                    <rect id="Rectangle-556-Copy-26" fill="#909090" x="22" y="48" width="4" height="4"></rect>
                    <rect id="Rectangle-556-Copy-27" fill="#909090" x="26" y="40" width="4" height="8"></rect>
                    <rect id="Rectangle-556-Copy-28" fill="#909090" x="30" y="40" width="4" height="4"></rect>
                    <rect id="Rectangle-556-Copy-29" fill="#909090" x="34" y="48" width="4" height="4"></rect>
                    <rect id="Rectangle-556-Copy-30" fill="#909090" x="34" y="32" width="4" height="4"></rect>
                    <rect id="Rectangle-556-Copy-31" fill="#909090" x="38" y="36" width="4" height="4"></rect>
                    <rect id="Rectangle-556-Copy-32" fill="#909090" x="42" y="28" width="4" height="4"></rect>
                    <rect id="Rectangle-556-Copy-67" fill="#909090" x="26" y="88" width="4" height="4"></rect>
                    <rect id="Rectangle-556-Copy-68" fill="#909090" x="22" y="84" width="4" height="4"></rect>
                    <rect id="Rectangle-556-Copy-69" fill="#909090" x="18" y="80" width="4" height="4"></rect>
                    <rect id="Rectangle-556-Copy-70" fill="#909090" x="14" y="76" width="4" height="4"></rect>
                    <rect id="Rectangle-556-Copy-71" fill="#909090" transform="translate(12.000000, 74.000000) scale(-1, 1) translate(-12.000000, -74.000000) " x="10" y="72" width="4" height="4"></rect>
                    <rect id="Rectangle-556-Copy-72" fill="#909090" transform="translate(8.000000, 70.000000) scale(-1, 1) translate(-8.000000, -70.000000) " x="6" y="68" width="4" height="4"></rect>
                    <rect id="Rectangle-556-Copy-73" fill="#909090" transform="translate(4.000000, 66.000000) scale(-1, 1) translate(-4.000000, -66.000000) " x="2" y="64" width="4" height="4"></rect>
                    <rect id="Rectangle-556-Copy-33" fill="#909090" x="46" y="24" width="4" height="4"></rect>
                    <rect id="Rectangle-556-Copy-34" fill="#909090" x="50" y="20" width="4" height="4"></rect>
                    <rect id="Rectangle-556-Copy-35" fill="#909090" x="54" y="12" width="4" height="4"></rect>
                    <rect id="Rectangle-556-Copy-36" fill="#909090" x="58" y="8" width="4" height="4"></rect>
                    <rect id="Rectangle-556-Copy-57" fill="#484848" x="58" y="48" width="4" height="4"></rect>
                    <rect id="Rectangle-556-Copy-58" fill="#484848" x="50" y="52" width="4" height="4"></rect>
                    <rect id="Rectangle-556-Copy-74" fill="#484848" x="50" y="60" width="4" height="4"></rect>
                    <rect id="Rectangle-556-Copy-75" fill="#484848" x="50" y="68" width="4" height="4"></rect>
                    <rect id="Rectangle-556-Copy-76" fill="#484848" x="54" y="64" width="4" height="4"></rect>
                    <rect id="Rectangle-556-Copy-77" fill="#484848" x="46" y="72" width="4" height="4"></rect>
                    <rect id="Rectangle-556-Copy-59" fill="#484848" x="42" y="56" width="4" height="4"></rect>
                    <rect id="Rectangle-556-Copy-60" fill="#484848" x="38" y="64" width="4" height="4"></rect>
                    <rect id="Rectangle-556-Copy-61" fill="#484848" x="26" y="68" width="4" height="4"></rect>
                    <rect id="Rectangle-556-Copy-62" fill="#484848" x="34" y="72" width="4" height="4"></rect>
                    <rect id="Rectangle-556-Copy-63" fill="#484848" x="26" y="76" width="4" height="4"></rect>
                    <rect id="Rectangle-556-Copy-64" fill="#484848" x="30" y="80" width="4" height="4"></rect>
                    <rect id="Rectangle-556-Copy-65" fill="#484848" x="34" y="84" width="4" height="4"></rect>
                    <rect id="Rectangle-556-Copy-66" fill="#484848" x="30" y="88" width="4" height="4"></rect>
                    <rect id="Rectangle-556-Copy-51" fill="#484848" x="58" y="56" width="4" height="8"></rect>
                    <rect id="Rectangle-556-Copy-52" fill="#484848" x="42" y="69" width="4" height="11"></rect>
                    <rect id="Rectangle-556-Copy-53" fill="#484848" x="38" y="76" width="4" height="8"></rect>
                </g>
                <g id="Group-Copy-4" transform="translate(128.000000, 0.000000)" sketch:type="MSShapeGroup">
                    <rect id="Rectangle-651" fill="#6C6C6C" transform="translate(45.991507, 45.991507) rotate(-315.000000) translate(-45.991507, -45.991507) " x="24.8009718" y="2.14022946" width="42.3810711" height="87.7025557"></rect>
                    <rect id="Rectangle-556" fill="#000000" x="2" y="56" width="4" height="4"></rect>
                    <rect id="Rectangle-556-Copy" fill="#000000" x="6" y="52" width="4" height="4"></rect>
                    <rect id="Rectangle-556-Copy-2" fill="#000000" x="10" y="48" width="4" height="4"></rect>
                    <rect id="Rectangle-556-Copy-3" fill="#000000" x="14" y="44" width="4" height="4"></rect>
                    <rect id="Rectangle-556-Copy-4" fill="#000000" x="18" y="40" width="4" height="4"></rect>
                    <rect id="Rectangle-556-Copy-9" fill="#000000" x="22" y="36" width="4" height="4"></rect>
                    <rect id="Rectangle-556-Copy-8" fill="#000000" x="26" y="32" width="4" height="4"></rect>
                    <rect id="Rectangle-556-Copy-23" fill="#909090" x="10" y="60" width="4" height="4"></rect>
                    <rect id="Rectangle-556-Copy-24" fill="#909090" x="14" y="52" width="4" height="8"></rect>
                    <rect id="Rectangle-556-Copy-25" fill="#909090" x="22" y="56" width="4" height="4"></rect>
                    <rect id="Rectangle-556-Copy-26" fill="#909090" x="22" y="48" width="4" height="4"></rect>
                    <rect id="Rectangle-556-Copy-27" fill="#909090" x="26" y="40" width="4" height="8"></rect>
                    <rect id="Rectangle-556-Copy-28" fill="#909090" x="30" y="40" width="4" height="4"></rect>
                    <rect id="Rectangle-556-Copy-29" fill="#909090" x="34" y="48" width="4" height="4"></rect>
                    <rect id="Rectangle-556-Copy-30" fill="#909090" x="34" y="32" width="4" height="4"></rect>
                    <rect id="Rectangle-556-Copy-31" fill="#909090" x="38" y="36" width="4" height="4"></rect>
                    <rect id="Rectangle-556-Copy-67" fill="#909090" x="26" y="88" width="4" height="4"></rect>
                    <rect id="Rectangle-556-Copy-68" fill="#909090" x="22" y="84" width="4" height="4"></rect>
                    <rect id="Rectangle-556-Copy-69" fill="#909090" x="18" y="80" width="4" height="4"></rect>
                    <rect id="Rectangle-556-Copy-70" fill="#909090" x="14" y="76" width="4" height="4"></rect>
                    <rect id="Rectangle-556-Copy-71" fill="#909090" transform="translate(12.000000, 74.000000) scale(-1, 1) translate(-12.000000, -74.000000) " x="10" y="72" width="4" height="4"></rect>
                    <rect id="Rectangle-556-Copy-72" fill="#909090" transform="translate(8.000000, 70.000000) scale(-1, 1) translate(-8.000000, -70.000000) " x="6" y="68" width="4" height="4"></rect>
                    <rect id="Rectangle-556-Copy-73" fill="#909090" transform="translate(4.000000, 66.000000) scale(-1, 1) translate(-4.000000, -66.000000) " x="2" y="64" width="4" height="4"></rect>
                    <rect id="Rectangle-556-Copy-57" fill="#484848" x="58" y="48" width="4" height="4"></rect>
                    <rect id="Rectangle-556-Copy-58" fill="#484848" x="50" y="52" width="4" height="4"></rect>
                    <rect id="Rectangle-556-Copy-74" fill="#484848" x="50" y="60" width="4" height="4"></rect>
                    <rect id="Rectangle-556-Copy-75" fill="#484848" x="50" y="68" width="4" height="4"></rect>
                    <rect id="Rectangle-556-Copy-76" fill="#484848" x="54" y="64" width="4" height="4"></rect>
                    <rect id="Rectangle-556-Copy-77" fill="#484848" x="46" y="72" width="4" height="4"></rect>
                    <rect id="Rectangle-556-Copy-59" fill="#484848" x="42" y="56" width="4" height="4"></rect>
                    <rect id="Rectangle-556-Copy-60" fill="#484848" x="38" y="64" width="4" height="4"></rect>
                    <rect id="Rectangle-556-Copy-61" fill="#484848" x="26" y="68" width="4" height="4"></rect>
                    <rect id="Rectangle-556-Copy-62" fill="#484848" x="34" y="72" width="4" height="4"></rect>
                    <rect id="Rectangle-556-Copy-63" fill="#484848" x="26" y="76" width="4" height="4"></rect>
                    <rect id="Rectangle-556-Copy-64" fill="#484848" x="30" y="80" width="4" height="4"></rect>
                    <rect id="Rectangle-556-Copy-65" fill="#484848" x="34" y="84" width="4" height="4"></rect>
                    <rect id="Rectangle-556-Copy-66" fill="#484848" x="30" y="88" width="4" height="4"></rect>
                    <rect id="Rectangle-556-Copy-51" fill="#484848" x="58" y="56" width="4" height="8"></rect>
                    <rect id="Rectangle-556-Copy-52" fill="#484848" x="42" y="69" width="4" height="11"></rect>
                    <rect id="Rectangle-556-Copy-53" fill="#484848" x="38" y="76" width="4" height="8"></rect>
                </g>
                <g id="Group-Copy-5" transform="translate(62.000000, 0.000000)" sketch:type="MSShapeGroup">
                    <rect id="Rectangle-651" fill="#6C6C6C" transform="translate(47.991507, 45.991507) rotate(-315.000000) translate(-47.991507, -45.991507) " x="26.8009718" y="2.14022946" width="42.3810711" height="87.7025557"></rect>
                    <rect id="Rectangle-556" fill="#000000" x="4" y="56" width="4" height="4"></rect>
                    <rect id="Rectangle-556" fill="#000000" x="0" y="60" width="4" height="4"></rect>
                    <rect id="Rectangle-556-Copy" fill="#000000" x="8" y="52" width="4" height="4"></rect>
                    <rect id="Rectangle-556-Copy-2" fill="#000000" x="12" y="48" width="4" height="4"></rect>
                    <rect id="Rectangle-556-Copy-3" fill="#000000" x="16" y="44" width="4" height="4"></rect>
                    <rect id="Rectangle-556-Copy-4" fill="#000000" x="20" y="40" width="4" height="4"></rect>
                    <rect id="Rectangle-556-Copy-9" fill="#000000" x="24" y="36" width="4" height="4"></rect>
                    <rect id="Rectangle-556-Copy-8" fill="#000000" x="28" y="32" width="4" height="4"></rect>
                    <rect id="Rectangle-556-Copy-23" fill="#909090" x="12" y="60" width="4" height="4"></rect>
                    <rect id="Rectangle-556-Copy-24" fill="#909090" x="16" y="52" width="4" height="8"></rect>
                    <rect id="Rectangle-556-Copy-25" fill="#909090" x="24" y="56" width="4" height="4"></rect>
                    <rect id="Rectangle-556-Copy-26" fill="#909090" x="24" y="48" width="4" height="4"></rect>
                    <rect id="Rectangle-556-Copy-27" fill="#909090" x="28" y="40" width="4" height="8"></rect>
                    <rect id="Rectangle-556-Copy-28" fill="#909090" x="32" y="40" width="4" height="4"></rect>
                    <rect id="Rectangle-556-Copy-29" fill="#909090" x="36" y="48" width="4" height="4"></rect>
                    <rect id="Rectangle-556-Copy-30" fill="#909090" x="36" y="32" width="4" height="4"></rect>
                    <rect id="Rectangle-556-Copy-31" fill="#909090" x="40" y="36" width="4" height="4"></rect>
                    <rect id="Rectangle-556-Copy-67" fill="#909090" x="28" y="88" width="4" height="4"></rect>
                    <rect id="Rectangle-556-Copy-68" fill="#909090" x="24" y="84" width="4" height="4"></rect>
                    <rect id="Rectangle-556-Copy-69" fill="#909090" x="20" y="80" width="4" height="4"></rect>
                    <rect id="Rectangle-556-Copy-70" fill="#909090" x="16" y="76" width="4" height="4"></rect>
                    <rect id="Rectangle-556-Copy-71" fill="#909090" transform="translate(14.000000, 74.000000) scale(-1, 1) translate(-14.000000, -74.000000) " x="12" y="72" width="4" height="4"></rect>
                    <rect id="Rectangle-556-Copy-72" fill="#909090" transform="translate(10.000000, 70.000000) scale(-1, 1) translate(-10.000000, -70.000000) " x="8" y="68" width="4" height="4"></rect>
                    <rect id="Rectangle-556-Copy-73" fill="#909090" transform="translate(6.000000, 66.000000) scale(-1, 1) translate(-6.000000, -66.000000) " x="4" y="64" width="4" height="4"></rect>
                    <rect id="Rectangle-556-Copy-47" fill="#484848" x="84" y="36" width="4" height="4"></rect>
                    <rect id="Rectangle-556-Copy-54" fill="#484848" x="76" y="32" width="4" height="4"></rect>
                    <rect id="Rectangle-556-Copy-55" fill="#484848" x="68" y="36" width="4" height="4"></rect>
                    <rect id="Rectangle-556-Copy-56" fill="#484848" x="68" y="44" width="4" height="4"></rect>
                    <rect id="Rectangle-556-Copy-78" fill="#484848" x="72" y="48" width="4" height="4"></rect>
                    <rect id="Rectangle-556-Copy-79" fill="#484848" x="68" y="52" width="4" height="4"></rect>
                    <rect id="Rectangle-556-Copy-57" fill="#484848" x="60" y="48" width="4" height="4"></rect>
                    <rect id="Rectangle-556-Copy-58" fill="#484848" x="52" y="52" width="4" height="4"></rect>
                    <rect id="Rectangle-556-Copy-74" fill="#484848" x="52" y="60" width="4" height="4"></rect>
                    <rect id="Rectangle-556-Copy-75" fill="#484848" x="52" y="68" width="4" height="4"></rect>
                    <rect id="Rectangle-556-Copy-76" fill="#484848" x="56" y="64" width="4" height="4"></rect>
                    <rect id="Rectangle-556-Copy-77" fill="#484848" x="48" y="72" width="4" height="4"></rect>
                    <rect id="Rectangle-556-Copy-59" fill="#484848" x="44" y="56" width="4" height="4"></rect>
                    <rect id="Rectangle-556-Copy-60" fill="#484848" x="40" y="64" width="4" height="4"></rect>
                    <rect id="Rectangle-556-Copy-61" fill="#484848" x="28" y="68" width="4" height="4"></rect>
                    <rect id="Rectangle-556-Copy-62" fill="#484848" x="36" y="72" width="4" height="4"></rect>
                    <rect id="Rectangle-556-Copy-63" fill="#484848" x="28" y="76" width="4" height="4"></rect>
                    <rect id="Rectangle-556-Copy-64" fill="#484848" x="32" y="80" width="4" height="4"></rect>
                    <rect id="Rectangle-556-Copy-65" fill="#484848" x="36" y="84" width="4" height="4"></rect>
                    <rect id="Rectangle-556-Copy-66" fill="#484848" x="32" y="88" width="4" height="4"></rect>
                    <rect id="Rectangle-556-Copy-48" fill="#484848" x="80" y="36" width="4" height="8"></rect>
                    <rect id="Rectangle-556-Copy-49" fill="#484848" x="76" y="40" width="4" height="8"></rect>
                    <rect id="Rectangle-556-Copy-50" fill="#484848" x="64" y="52" width="4" height="8"></rect>
                    <rect id="Rectangle-556-Copy-51" fill="#484848" x="60" y="56" width="4" height="8"></rect>
                    <rect id="Rectangle-556-Copy-52" fill="#484848" x="44" y="69" width="4" height="11"></rect>
                    <rect id="Rectangle-556-Copy-53" fill="#484848" x="40" y="76" width="4" height="8"></rect>
                    <rect id="Rectangle-556-Copy-46" fill="#242424" x="88" y="32" width="4" height="4"></rect>
                </g>
                <g id="Group-Copy-6" sketch:type="MSShapeGroup">
                    <rect id="Rectangle-651" fill="#6C6C6C" transform="translate(45.991507, 45.991507) rotate(-315.000000) translate(-45.991507, -45.991507) " x="24.8009718" y="2.14022946" width="42.3810711" height="87.7025557"></rect>
                    <rect id="Rectangle-556-Copy-47" fill="#484848" x="82" y="36" width="4" height="4"></rect>
                    <rect id="Rectangle-556-Copy-54" fill="#484848" x="74" y="32" width="4" height="4"></rect>
                    <rect id="Rectangle-556-Copy-55" fill="#484848" x="66" y="36" width="4" height="4"></rect>
                    <rect id="Rectangle-556-Copy-56" fill="#484848" x="66" y="44" width="4" height="4"></rect>
                    <rect id="Rectangle-556-Copy-78" fill="#484848" x="70" y="48" width="4" height="4"></rect>
                    <rect id="Rectangle-556-Copy-79" fill="#484848" x="66" y="52" width="4" height="4"></rect>
                    <rect id="Rectangle-556-Copy-48" fill="#484848" x="78" y="36" width="4" height="8"></rect>
                    <rect id="Rectangle-556-Copy-49" fill="#484848" x="74" y="40" width="4" height="8"></rect>
                    <rect id="Rectangle-556-Copy-50" fill="#484848" x="62" y="52" width="4" height="8"></rect>
                    <rect id="Rectangle-556-Copy-46" fill="#242424" x="86" y="32" width="4" height="4"></rect>
                </g>
            </g>
            <rect id="Rectangle-556-Copy-15" fill="#000000" sketch:type="MSShapeGroup" x="64" y="92" width="4" height="4"></rect>
            <rect id="Rectangle-556-Copy-15" fill="#000000" sketch:type="MSShapeGroup" x="64" y="28" width="4" height="4"></rect>
        </g>
    </g>
</svg>